<svg version="1" xmlns="http://www.w3.org/2000/svg" width="933.333" height="933.333" viewBox="0 0 700.000000 700.000000"><path d="M343.5 3.7c-3.3 2-8 4.7-10.5 6.1-6.9 3.9-9 5.1-31.4 18.1-11.5 6.6-21.1 12.1-21.3 12.1-.2 0-1.6.8-3.1 1.9-1.5 1-16.6 9.9-33.7 19.7-44.4 25.4-74.6 42.9-85 48.9-13.7 8-72.4 41.9-77.5 44.8-2.5 1.4-11 6.3-19 10.9l-14.5 8.4V525.3l24 13.9c13.2 7.7 26.3 15.2 29 16.8 2.8 1.5 16.3 9.3 30 17.2 13.8 8 26.4 15.3 28 16.2 1.7.9 4.4 2.5 6 3.5 1.7 1 5 2.9 7.5 4.3s12.3 7.1 21.9 12.7c9.5 5.5 17.5 10.1 17.7 10.1.2 0 4.4 2.5 9.5 5.5 5 3 9.5 5.5 10 5.5s.9.4.9 1c0 .5.5 1 1.1 1 .9 0 14.1 7.4 29.9 16.9 1.9 1.1 4.9 2.8 6.5 3.7 1.7.9 19 10.9 38.5 22.2 19.5 11.2 37 21.3 38.8 22.3l3.3 1.9 6.7-3.9c3.7-2.1 13.9-8 22.7-13.1 34.7-20.1 46.9-27 47.7-27 .4 0 .8-.5.8-1 0-.6.6-1 1.3-1 .7 0 2.8-1.1 4.7-2.3 1.9-1.3 5.5-3.5 8-4.9 2.5-1.4 6.2-3.5 8.3-4.7 2-1.1 5.4-3.1 7.5-4.2 2-1.2 7.5-4.4 12.2-7.2 4.7-2.7 10.1-5.9 12-7 17.8-10 35.6-20.2 36-20.7.3-.3 1.9-1.2 3.5-2.1 6.6-3.6 122.3-70.4 126.8-73.1l4.7-3V349.4c0-97.4-.4-175.4-.9-175.4-.4 0-12.9-7-27.6-15.5-14.7-8.5-27.1-15.5-27.6-15.5s-.9-.5-.9-1c0-.6-.4-1-1-1-.5 0-5.5-2.7-11.1-6-5.5-3.3-10.2-6-10.4-6-.2 0-3.6-1.9-7.7-4.3-4-2.4-9.3-5.5-11.8-6.9-2.5-1.4-8.5-4.9-13.5-7.8-4.9-2.9-10.6-6.2-12.5-7.2-3.5-2.1-19.4-11.2-71-41.1-15.7-9-30.1-17.3-32-18.4-1.9-1.1-19.6-11.3-39.3-22.7C366.1 9.3 349.9 0 349.7 0c-.1.1-2.9 1.7-6.2 3.7z"/></svg>