<?xml version="1.0" encoding="UTF-8" standalone="no"?>
<!-- Created with Inkscape (http://www.inkscape.org/) -->

<svg
   xmlns:dc="http://purl.org/dc/elements/1.1/"
   xmlns:cc="http://creativecommons.org/ns#"
   xmlns:rdf="http://www.w3.org/1999/02/22-rdf-syntax-ns#"
   xmlns:svg="http://www.w3.org/2000/svg"
   xmlns="http://www.w3.org/2000/svg"
   xmlns:sodipodi="http://sodipodi.sourceforge.net/DTD/sodipodi-0.dtd"
   xmlns:inkscape="http://www.inkscape.org/namespaces/inkscape"
   width="151mm"
   height="151mm"
   viewBox="0 0 151 151"
   version="1.1"
   id="svg8"
   inkscape:version="0.92.3 (2405546, 2018-03-11)"
   sodipodi:docname="android.svg">
  <defs
     id="defs2" />
  <sodipodi:namedview
     id="base"
     pagecolor="#ffffff"
     bordercolor="#666666"
     borderopacity="1.0"
     inkscape:pageopacity="0.0"
     inkscape:pageshadow="2"
     inkscape:zoom="0.7"
     inkscape:cx="293.71324"
     inkscape:cy="325.92194"
     inkscape:document-units="mm"
     inkscape:current-layer="layer1"
     showgrid="false"
     inkscape:window-width="1366"
     inkscape:window-height="703"
     inkscape:window-x="0"
     inkscape:window-y="0"
     inkscape:window-maximized="1" />
  <metadata
     id="metadata5">
    <rdf:RDF>
      <cc:Work
         rdf:about="">
        <dc:format>image/svg+xml</dc:format>
        <dc:type
           rdf:resource="http://purl.org/dc/dcmitype/StillImage" />
        <dc:title />
      </cc:Work>
    </rdf:RDF>
  </metadata>
  <g
     inkscape:label="Layer 1"
     inkscape:groupmode="layer"
     id="layer1"
     transform="translate(0,-146)">
    <path
       style="fill:#78c156;fill-opacity:1;stroke-width:0.53490728"
       d="m 51.342643,284.30248 c -1.643922,-0.67996 -3.446284,-2.86689 -4.02459,-4.88329 -0.287163,-1.00131 -0.522124,-5.49297 -0.522124,-9.98144 v -8.16086 h -3.130355 c -2.361887,0 -3.569406,-0.2959 -4.91897,-1.20535 -2.974804,-2.00474 -3.598114,-3.6858 -4.213902,-11.36497 -0.692532,-8.63616 -2.001419,-24.62228 -2.912477,-35.57133 -0.379432,-4.56009 -0.610835,-8.44792 -0.514218,-8.63961 0.171035,-0.33947 3.294234,-0.75571 9.271036,-1.23566 14.733983,-1.18318 30.733689,-2.51588 35.571327,-2.96296 3.23619,-0.29909 9.013187,-0.78883 12.837773,-1.08832 3.824584,-0.29949 7.708162,-0.66413 8.630182,-0.8103 1.234184,-0.19571 1.765961,-0.0323 2.015971,0.61921 0.186797,0.48672 0.696754,5.60743 1.133284,11.37936 0.43652,5.77194 1.16177,14.94753 1.61166,20.39022 1.59776,19.32926 1.60473,20.34025 0.15526,22.4661 -1.77671,2.60567 -4.209168,3.62861 -9.801953,4.12201 l -4.814165,0.42472 -0.267451,11.23303 c -0.297128,12.47978 -0.511084,13.28035 -3.990242,14.93134 -3.732578,1.7712 -8.188256,0.46746 -10.009744,-2.9289 -0.844077,-1.57391 -0.977408,-3.15091 -0.977408,-11.56134 0,-6.42141 -0.197521,-9.86096 -0.580106,-10.09735 -0.319064,-0.19712 -2.605785,-0.18985 -5.081616,0.0162 l -4.501509,0.37499 -0.01213,9.17912 c -0.01415,10.46465 -0.626039,12.82601 -3.835239,14.7826 -1.824358,1.11228 -5.164283,1.38093 -7.118617,0.57256 z M 18.178385,251.95562 c -3.197678,-1.43648 -3.680967,-2.61191 -4.085004,-9.93539 -0.685177,-12.41934 -0.536349,-30.34544 0.26792,-32.27032 1.229115,-2.94169 3.73519,-4.63827 6.851309,-4.63827 3.459206,0 5.494164,1.22227 6.85507,4.11745 1.010605,2.15001 1.075765,3.35943 1.067497,19.81381 -0.0081,17.1708 -0.03316,17.56717 -1.211604,19.66367 -1.985872,3.53264 -6.077348,4.89673 -9.745188,3.24905 z m 89.272295,-43.59433 c -0.61989,-0.26624 -1.88362,-1.40189 -2.80828,-2.52366 -1.31317,-1.59308 -1.68121,-2.54753 -1.68121,-4.35994 0,-1.2762 0.27567,-2.84614 0.61261,-3.48876 1.32084,-2.51919 17.65107,-23.8845 19.15589,-25.0622 1.33011,-1.04097 1.83756,-2.16475 3.02715,-6.7038 0.8841,-3.37357 1.73989,-5.57246 2.24398,-5.7659 1.58915,-0.6098 1.86783,0.59112 1.17326,5.05604 -0.37097,2.3847 -0.51732,4.49298 -0.32522,4.68507 0.19207,0.19207 1.61461,-0.90034 3.16113,-2.42763 1.68751,-1.66655 3.28637,-2.77693 3.99857,-2.77693 1.96103,0 1.40164,1.62093 -1.61275,4.67323 -2.42437,2.45487 -2.70961,2.95881 -2.12887,3.76116 2.24999,3.10856 2.74064,6.00867 1.4945,8.83356 -1.05043,2.38128 -17.37063,23.85242 -19.10489,25.13471 -1.58691,1.17336 -5.50048,1.69749 -7.20587,0.96505 z m -76.761182,-9.26737 c -0.270747,-7.94961 2.8458,-15.56377 8.827717,-21.56732 2.091001,-2.09856 4.353481,-4.18192 5.027737,-4.62971 l 1.225937,-0.81413 -2.964374,-4.42884 c -2.763294,-4.12836 -3.529821,-5.88134 -2.563208,-5.86158 0.827845,0.0162 1.603266,0.90022 4.153657,4.73164 1.44155,2.1656 2.910373,4.04851 3.264069,4.18422 0.353676,0.13566 1.326718,-0.10655 2.162326,-0.5382 5.430176,-2.80562 14.371433,-4.13728 20.508474,-3.05442 1.912303,0.33743 4.319396,0.74049 5.349085,0.89574 l 1.872172,0.28225 2.407073,-4.99317 c 1.323908,-2.74623 2.647796,-4.87281 2.941994,-4.72571 0.803523,0.40178 0.502574,1.5422 -1.580988,5.99137 -1.04275,2.22666 -1.892166,4.25677 -1.887576,4.51136 0.0041,0.25457 1.207194,1.05139 2.6725,1.77066 5.831948,2.86276 12.02592,9.19349 14.431618,14.75021 1.495111,3.45345 2.705295,9.37983 1.965328,9.62435 -0.342907,0.11322 -3.993393,0.46837 -8.112175,0.78901 -19.107661,1.48745 -27.888698,2.19856 -42.737756,3.46105 -8.795815,0.74781 -16.197611,1.35967 -16.448401,1.35967 -0.250791,0 -0.48264,-0.78229 -0.515209,-1.73845 z M 49.886335,186.627 c 2.312174,-1.6195 0.943364,-5.58619 -1.927647,-5.58619 -3.040288,0 -4.516915,3.9028 -2.113562,5.58619 0.653856,0.45797 1.563135,0.8327 2.020604,0.8327 0.45749,0 1.366768,-0.37473 2.020605,-0.8327 z m 31.279588,-2.51049 c 1.476668,-1.12798 1.660763,-3.20285 0.403875,-4.55195 -2.093932,-2.24757 -5.353979,-0.92698 -5.353979,2.1688 0,2.57168 2.885022,3.96063 4.950104,2.38315 z"
       id="path74"
       inkscape:connector-curvature="0" />
    <path
       style="fill:#000000;stroke-width:0.26458335"
       d=""
       id="path72"
       inkscape:connector-curvature="0" />
  </g>
</svg>
