<?xml version="1.0" encoding="UTF-8" standalone="no"?>
<!-- Created with Inkscape (http://www.inkscape.org/) -->

<svg
   xmlns:dc="http://purl.org/dc/elements/1.1/"
   xmlns:cc="http://creativecommons.org/ns#"
   xmlns:rdf="http://www.w3.org/1999/02/22-rdf-syntax-ns#"
   xmlns:svg="http://www.w3.org/2000/svg"
   xmlns="http://www.w3.org/2000/svg"
   xmlns:sodipodi="http://sodipodi.sourceforge.net/DTD/sodipodi-0.dtd"
   xmlns:inkscape="http://www.inkscape.org/namespaces/inkscape"
   width="151mm"
   height="151mm"
   viewBox="0 0 151 151"
   version="1.1"
   id="svg8"
   inkscape:version="0.92.3 (2405546, 2018-03-11)"
   sodipodi:docname="github.svg">
  <defs
     id="defs2" />
  <sodipodi:namedview
     id="base"
     pagecolor="#ffffff"
     bordercolor="#666666"
     borderopacity="1.0"
     inkscape:pageopacity="0.0"
     inkscape:pageshadow="2"
     inkscape:zoom="0.49497475"
     inkscape:cx="-41.005027"
     inkscape:cy="169.2545"
     inkscape:document-units="mm"
     inkscape:current-layer="layer1"
     showgrid="false"
     inkscape:window-width="1366"
     inkscape:window-height="703"
     inkscape:window-x="0"
     inkscape:window-y="0"
     inkscape:window-maximized="1" />
  <metadata
     id="metadata5">
    <rdf:RDF>
      <cc:Work
         rdf:about="">
        <dc:format>image/svg+xml</dc:format>
        <dc:type
           rdf:resource="http://purl.org/dc/dcmitype/StillImage" />
        <dc:title />
      </cc:Work>
    </rdf:RDF>
  </metadata>
  <g
     inkscape:label="Layer 1"
     inkscape:groupmode="layer"
     id="layer1"
     transform="translate(0,-146)">
    <path
       style="fill:#000000;stroke-width:0.26458335"
       d=""
       id="path72"
       inkscape:connector-curvature="0" />
    <path
       style="fill:#1b1e22;fill-opacity:1;stroke-width:0.10056645"
       d="m 93.051884,281.19194 c -0.630731,-0.10768 -1.428182,-0.55389 -1.754512,-0.98172 -0.145834,-0.1912 -0.349911,-0.5707 -0.453502,-0.84333 -0.179362,-0.47205 -0.18818,-0.94996 -0.184877,-10.01963 0.0023,-5.88265 -0.03562,-9.83155 -0.0988,-10.32848 -0.423432,-3.33088 -1.535141,-6.00224 -3.284002,-7.89122 -0.312042,-0.33703 -0.549874,-0.62594 -0.52852,-0.64201 0.02137,-0.016 0.649766,-0.1091 1.396471,-0.20674 16.431798,-2.14881 24.505218,-10.08005 25.857758,-25.40234 0.18657,-2.11348 0.16232,-6.0379 -0.0466,-7.53895 -0.63481,-4.56164 -2.42391,-8.65594 -5.24178,-11.99565 -0.36148,-0.42842 -0.65723,-0.84134 -0.65723,-0.91759 0,-0.0762 0.0705,-0.33666 0.15678,-0.57869 0.60253,-1.69117 0.95028,-4.02313 0.94749,-6.35349 -0.004,-2.64555 -0.35945,-4.77765 -1.23816,-7.41002 l -0.5198,-1.55717 -0.40227,-0.0859 c -0.5765,-0.12312 -2.35426,-0.008 -3.46954,0.22532 -3.3242,0.69447 -7.268746,2.48986 -11.49994,5.23431 l -1.221721,0.79243 -1.810192,-0.44387 c -6.247421,-1.53192 -13.278455,-1.95383 -19.861877,-1.19184 -2.114709,0.24476 -4.707023,0.70629 -6.687387,1.19058 l -1.809916,0.44263 -1.307644,-0.83275 c -4.40682,-2.80641 -8.44578,-4.60714 -11.731701,-5.23047 -1.060428,-0.20116 -2.643081,-0.29459 -3.152418,-0.1861 l -0.402264,0.0857 -0.519801,1.55717 c -0.878709,2.63237 -1.234963,4.76447 -1.238152,7.41003 -0.0026,2.33035 0.344955,4.66231 0.947487,6.35348 0.08623,0.24203 0.156781,0.50244 0.156781,0.57869 0,0.0762 -0.295812,0.48917 -0.657361,0.9176 -0.966262,1.14499 -2.261208,3.12466 -2.943487,4.49991 -2.196174,4.42676 -2.876238,8.88683 -2.323122,15.23582 0.716572,8.22521 3.607389,14.5233 8.546004,18.61879 1.479237,1.2267 2.84379,2.10568 4.72445,3.04329 2.607596,1.30003 5.301133,2.20529 8.559339,2.87666 1.537323,0.31678 4.653159,0.80345 5.146145,0.8038 0.282041,2.1e-4 0.279026,0.006 -0.29019,0.62874 -1.534134,1.67643 -2.628173,4.00146 -3.110025,6.60932 -0.08657,0.46856 -0.190397,0.88432 -0.230721,0.92395 -0.132319,0.13004 -1.563618,0.66921 -2.485558,0.93631 -4.965229,1.43851 -9.425105,0.44006 -12.640765,-2.82993 -1.096547,-1.11507 -1.163581,-1.19947 -2.270265,-2.85831 -1.046162,-1.56812 -1.698742,-2.38636 -2.633259,-3.30167 -2.371595,-2.32287 -5.106073,-3.39186 -7.74271,-3.02685 -0.891593,0.12343 -1.548498,0.38552 -1.653761,0.65984 -0.03447,0.0899 -0.06269,0.31154 -0.06269,0.49266 0,0.63386 1.064361,1.71764 2.552903,2.59946 0.814274,0.48238 1.9579,1.52529 2.725423,2.48538 1.227672,1.5357 2.959147,4.40712 3.576887,5.9318 0.825837,2.03829 1.69783,3.42182 2.824313,4.48113 1.887651,1.7751 4.473126,2.88717 7.716088,3.31891 2.158571,0.28737 6.145427,0.14565 8.846566,-0.31445 0.516111,-0.0879 0.952432,-0.14467 0.969601,-0.12611 0.01719,0.0187 0.04744,2.72643 0.06727,6.01748 l 0.03607,5.9837 -0.281699,0.57364 c -0.523082,1.0652 -1.284394,1.50688 -2.704268,1.56889 -0.941693,0.0411 -1.014771,0.0283 -2.162178,-0.38233 -2.301725,-0.82354 -4.228778,-1.64195 -6.517565,-2.768 -6.378377,-3.1381 -11.563357,-6.89661 -16.595276,-12.02971 -9.197306,-9.38222 -15.023762,-21.42275 -16.685106,-34.4802 -0.351941,-2.7661 -0.408681,-3.83916 -0.406784,-7.69334 0.0019,-4.18024 0.09705,-5.59172 0.602377,-8.95041 1.302781,-8.65901 4.434249,-16.83105 9.257793,-24.15963 2.370071,-3.60092 4.531003,-6.2351 7.781187,-9.48529 5.047291,-5.0473 9.967661,-8.56039 16.33572,-11.66355 6.490506,-3.16284 13.054733,-5.00775 20.627893,-5.79758 2.149675,-0.22421 8.818244,-0.25575 10.861179,-0.0513 7.671295,0.7674 14.26178,2.54582 20.514627,5.53581 6.69364,3.20077 11.74118,6.76667 16.95278,11.97653 5.04555,5.04387 8.5563,9.96144 11.6626,16.33589 3.08867,6.33832 4.94839,12.87124 5.75095,20.20233 0.30135,2.7526 0.32556,9.12181 0.0448,11.78957 -0.38747,3.68216 -0.86406,6.35096 -1.72399,9.65438 -4.7673,18.31325 -18.2283,33.61451 -35.803787,40.69852 -2.891465,1.16544 -4.067808,1.46219 -5.098621,1.28623 z"
       id="path943"
       inkscape:connector-curvature="0" />
  </g>
</svg>
