<?xml version="1.0" encoding="UTF-8"?>
<svg version="1.1" xmlns="http://www.w3.org/2000/svg" width="150" height="150">
<path d="M0 0 C0 6.27 0 12.54 0 19 C1.32 19.66 2.64 20.32 4 21 C5.76747831 22.62018845 7.37235201 24.24780902 9 26 C9.93392578 26.94359375 9.93392578 26.94359375 10.88671875 27.90625 C23.64336748 41.31895495 27.64952998 57.67755553 27.25 75.66015625 C27.01551741 81.10132477 25.91492403 85.90645715 24 91 C23.67128906 91.96035156 23.34257812 92.92070313 23.00390625 93.91015625 C18.91868331 104.86533886 11.78622354 115.335042 2 122 C1.34 122 0.68 122 0 122 C0 130.58 0 139.16 0 148 C-4.34585418 145.82707291 -5.14537878 144.6589428 -7.5625 140.625 C-9.5812409 137.28890702 -11.60123651 134.07683341 -14 131 C-14.61875 131.28875 -15.2375 131.5775 -15.875 131.875 C-30.72702204 137.22172793 -47.19495692 136.25355569 -61.6875 130.1875 C-71.67330487 125.37816016 -80.33988831 119.72671772 -87.0625 110.8125 C-87.4944165 110.24152588 -87.92633301 109.67055176 -88.37133789 109.08227539 C-98.22807402 95.76683941 -102.72085122 79.42461717 -100.52734375 62.83984375 C-97.50920841 43.92220689 -88.93483021 29.43777595 -73.6875 17.8125 C-62.05426379 9.62257299 -50.94244179 6.62968099 -36.875 6.8125 C-35.92496094 6.81314453 -34.97492188 6.81378906 -33.99609375 6.81445312 C-29.9542631 6.83967953 -26.30808243 6.93628146 -22.3359375 7.7578125 C-17.63398279 8.09917221 -14.77012473 6.33132039 -10.75 4.0625 C-3.31677796 0 -3.31677796 0 0 0 Z " fill="#950101" transform="translate(112,1)"/>
<path d="M0 0 C0.98742187 -0.00322266 1.97484375 -0.00644531 2.9921875 -0.00976562 C10.23228304 0.04478304 10.23228304 0.04478304 12.5 2.3125 C11.77554688 2.69921875 11.05109375 3.0859375 10.3046875 3.484375 C1.34613633 8.10027313 1.34613633 8.10027313 -6.5 14.3125 C-8.0765559 15.26135309 -9.66127033 16.19667423 -11.25 17.125 C-25.16736754 25.96490274 -38.63489188 38.75599209 -42.5 55.3125 C-43.44265691 62.74357457 -41.95803322 68.84445733 -37.63671875 74.94140625 C-26.70548052 88.15075127 -9.53213132 95.1896291 6.5 100.1875 C13.80707389 102.78414006 16.49152429 108.20945399 19.875 114.8125 C20.41125 115.9675 20.9475 117.1225 21.5 118.3125 C14.01371192 121.03402996 7.19148738 121.86048665 -0.75 121.8125 C-1.85102051 121.80677979 -2.95204102 121.80105957 -4.08642578 121.79516602 C-19.74780244 121.452292 -32.22095917 115.39625556 -43.6875 104.75 C-56.81746826 90.97292679 -61.15983652 74.94351693 -60.8359375 56.328125 C-60.20593154 42.21082081 -54.55387753 30.10889095 -45.125 19.6875 C-44.25875 18.90375 -43.3925 18.12 -42.5 17.3125 C-41.87738281 16.69761719 -41.25476563 16.08273438 -40.61328125 15.44921875 C-29.23987343 4.60670609 -15.53425491 -0.26169567 0 0 Z " fill="#020202" transform="translate(75.5,10.6875)"/>
<path d="M0 0 C10.43618324 4.88351103 17.30443779 17.01944792 21.19287109 27.43896484 C26.92465012 44.23221579 24.79179515 60.39344328 17.49609375 76.2734375 C13.34525401 84.05501176 7.72624368 90.33344645 1 96 C0.34 96 -0.32 96 -1 96 C-1.14798841 73.05724303 -0.90719962 50.12641213 -0.5 27.1875 C-0.48804218 26.51366146 -0.47608437 25.83982292 -0.46376419 25.14556503 C-0.31452595 16.76360973 -0.15983 8.38176008 0 0 Z " fill="#030303" transform="translate(112,24)"/>
<path d="M0 0 C0.97517578 0.00064453 1.95035156 0.00128906 2.95507812 0.00195312 C10.75000743 0.050103 10.75000743 0.050103 14.6875 1.1875 C14.6875 2.1775 14.6875 3.1675 14.6875 4.1875 C13.62390259 4.14822388 13.62390259 4.14822388 12.53881836 4.1081543 C-6.78702719 3.48928855 -23.88259676 3.98127815 -39.02734375 17.74609375 C-40.13581444 18.8802681 -41.22667752 20.03162446 -42.3125 21.1875 C-42.9725 21.1875 -43.6325 21.1875 -44.3125 21.1875 C-44.57417969 21.7546875 -44.83585937 22.321875 -45.10546875 22.90625 C-46.4103121 25.3723617 -47.94913494 27.45796777 -49.625 29.6875 C-59.46135389 43.58982064 -60.48931454 58.66720437 -59.3125 75.1875 C-56.45246825 91.39979425 -46.79284206 104.95338281 -33.703125 114.65625 C-23.16974413 121.4031214 -13.35910925 123.52522848 -1.0625 123.4375 C0.00613281 123.44523437 1.07476562 123.45296875 2.17578125 123.4609375 C9.21659667 123.44382738 15.81079416 122.69317275 22.6875 121.1875 C22.6875 122.1775 22.6875 123.1675 22.6875 124.1875 C8.56529999 130.77786001 -8.44587713 129.4323174 -22.76953125 124.30859375 C-33.61866089 119.76753949 -43.26087434 113.43336726 -50.375 104 C-50.8069165 103.42902588 -51.23883301 102.85805176 -51.68383789 102.26977539 C-61.54057402 88.95433941 -66.03335122 72.61211717 -63.83984375 56.02734375 C-60.82170841 37.10970689 -52.24733021 22.62527595 -37 11 C-25.29172427 2.75724433 -14.1517316 -0.18131011 0 0 Z " fill="#C2C2C2" transform="translate(75.3125,7.8125)"/>
<path d="M0 0 C4.23614322 0.47068258 6.28250287 3.01003614 9 6 C9.93392578 6.94552734 9.93392578 6.94552734 10.88671875 7.91015625 C23.65147558 21.30707247 27.64930439 37.68770953 27.25 55.66015625 C27.01551741 61.10132477 25.91492403 65.90645715 24 71 C23.67128906 71.96035156 23.34257812 72.92070313 23.00390625 73.91015625 C18.99216664 84.6682815 11.84470699 95.67444166 2 102 C1.01 102 0.02 102 -1 102 C0.52529638 98.29209721 2.7574164 96.1922667 5.6875 93.5 C17.33260356 81.98913395 23.40120866 66.78575645 23.625 50.5 C23.38097545 32.75618531 16.07834106 18.89596045 3.91796875 6.19140625 C2.15834333 4.18091774 1.05004202 2.43898648 0 0 Z " fill="#D0D0D0" transform="translate(112,21)"/>
<path d="M0 0 C2.31 0 4.62 0 7 0 C8.33858524 2.28874173 9.67101014 4.58069656 11 6.875 C11.3815625 7.52597656 11.763125 8.17695312 12.15625 8.84765625 C15 13.7734375 15 13.7734375 15 16 C15.99 16.33 16.98 16.66 18 17 C18 17.99 18 18.98 18 20 C9.75 20 1.5 20 -7 20 C-6.34 21.98 -5.68 23.96 -5 26 C-6.70884005 24.37660195 -8.37446717 22.70680947 -10 21 C-10 20.34 -10 19.68 -10 19 C-8.68 18.67 -7.36 18.34 -6 18 C-5.896875 17.21625 -5.79375 16.4325 -5.6875 15.625 C-5 13 -5 13 -2 11 C-1.20773139 9.14995912 -1.20773139 9.14995912 -0.8125 7.0625 C-0.65394531 6.37285156 -0.49539062 5.68320312 -0.33203125 4.97265625 C0.08299104 2.84033633 0.08299104 2.84033633 0 0 Z " fill="#020202" transform="translate(73,57)"/>
<path d="M0 0 C0 6.27 0 12.54 0 19 C0.66 19.33 1.32 19.66 2 20 C1.34 20 0.68 20 0 20 C0.33 20.99 0.66 21.98 1 23 C1.05985719 24.56861791 1.05895989 26.13991055 1.02172852 27.70922852 C1.00163727 28.67956024 0.98154602 29.64989197 0.96084595 30.64962769 C0.93380585 31.71528961 0.90676575 32.78095154 0.87890625 33.87890625 C0.82981007 36.21899023 0.78091024 38.55907834 0.73217773 40.89916992 C0.70437225 42.14669037 0.67656677 43.39421082 0.6479187 44.67953491 C0.501956 51.31471062 0.37497038 57.95019934 0.2578125 64.5859375 C0.24553305 65.28017759 0.23325359 65.97441769 0.22060204 66.68969536 C-0.07869568 84.021771 -0.08619939 101.35331399 -0.0625 118.6875 C-0.06157726 119.42641102 -0.06065453 120.16532204 -0.05970383 120.9266243 C-0.0481639 129.95110649 -0.02879954 138.9755549 0 148 C-3.9242894 146.23516168 -5.321509 144.39240459 -7.5625 140.6875 C-8.14128906 139.74261719 -8.72007813 138.79773438 -9.31640625 137.82421875 C-9.87199219 136.89222656 -10.42757812 135.96023437 -11 135 C-11.87978516 133.64841797 -11.87978516 133.64841797 -12.77734375 132.26953125 C-13.18082031 131.52058594 -13.58429688 130.77164063 -14 130 C-13.505 129.01 -13.505 129.01 -13 128 C-12.07793671 129.18331455 -11.16268791 130.37193929 -10.25 131.5625 C-9.48429687 132.55443359 -9.48429687 132.55443359 -8.703125 133.56640625 C-6.59625523 136.57691053 -4.82306833 139.80963042 -3 143 C-2.67 96.8 -2.34 50.6 -2 3 C-3.98 3.66 -5.96 4.32 -8 5 C-8 4.01 -8 3.02 -8 2 C-5.09399739 0.74335022 -3.20395416 0 0 0 Z " fill="#756262" transform="translate(112,1)"/>
<path d="M0 0 C0.66 0.66 1.32 1.32 2 2 C0.98421875 2.72703125 -0.0315625 3.4540625 -1.078125 4.203125 C-14.43583492 13.89813197 -27.57252126 23.71756378 -33 40 C-33.80269181 47.6873177 -32.46455293 54.69045749 -27.8125 60.9375 C-27.214375 61.618125 -26.61625 62.29875 -26 63 C-26 63.66 -26 64.32 -26 65 C-25.40960938 65.27457031 -24.81921875 65.54914063 -24.2109375 65.83203125 C-22.09070826 66.95208168 -20.46794823 68.16560836 -18.625 69.6875 C-8.60210713 77.28340772 3.10282992 81.38419341 15 85 C15.495 83.515 15.495 83.515 16 82 C18 84 18 84 18 87 C18.66 87 19.32 87 20 87 C21.32421875 88.6796875 21.32421875 88.6796875 22.6875 90.875 C23.14511719 91.59429687 23.60273437 92.31359375 24.07421875 93.0546875 C24.37972656 93.69664063 24.68523437 94.33859375 25 95 C24.67 95.66 24.34 96.32 24 97 C23.36707031 95.92621094 22.73414063 94.85242188 22.08203125 93.74609375 C18.79510116 89.16099344 14.88554204 87.84877213 9.6875 86.0625 C7.89251652 85.39471364 6.09956401 84.72144486 4.30859375 84.04296875 C3.41640137 83.70700684 2.52420898 83.37104492 1.60498047 83.02490234 C-12.17154155 77.60467372 -26.54401234 70.27098848 -34.16796875 56.9609375 C-37.49456955 49.12077975 -36.53327654 41.67034991 -33.4609375 33.90234375 C-26.14447589 19.3672342 -13.28962682 8.85975121 0 0 Z " fill="#625252" transform="translate(68,24)"/>
<path d="M0 0 C0.97517578 0.00064453 1.95035156 0.00128906 2.95507812 0.00195312 C10.75000743 0.050103 10.75000743 0.050103 14.6875 1.1875 C14.6875 2.1775 14.6875 3.1675 14.6875 4.1875 C13.97843506 4.16131592 13.26937012 4.13513184 12.53881836 4.1081543 C-7.33404065 3.4717717 -21.39263171 5.25417729 -38.3125 16.1875 C-38.6425 15.1975 -38.9725 14.2075 -39.3125 13.1875 C-27.45725626 3.30246869 -15.2045126 -0.19479821 0 0 Z " fill="#D4D4D4" transform="translate(75.3125,7.8125)"/>
<path d="M0 0 C3.61261576 -0.1474537 6.52947738 -0.15663532 9.98046875 0.9921875 C15.29793624 2.58339668 20.74836426 2.28925067 26.25 2.25 C27.31863281 2.25773438 28.38726562 2.26546875 29.48828125 2.2734375 C36.52909667 2.25632738 43.12329416 1.50567275 50 0 C50 0.99 50 1.98 50 3 C36.62802823 9.24025349 20.77628127 8.21839233 7 4 C4.57485445 3.11011188 2.32391487 2.13493517 0 1 C0 0.67 0 0.34 0 0 Z " fill="#B4B4B4" transform="translate(48,129)"/>
<path d="M0 0 C0.66 0 1.32 0 2 0 C-0.3925382 16.14070549 -7.91908519 29.21402424 -20.2734375 39.890625 C-22 41 -22 41 -25 41 C-23.47470362 37.29209721 -21.2425836 35.1922667 -18.3125 32.5 C-10.11110974 24.41695592 -5.75676417 15.68389738 -2.82421875 4.6171875 C-2 2 -2 2 0 0 Z " fill="#C8C8C8" transform="translate(136,82)"/>
<path d="M0 0 C0.33 0 0.66 0 1 0 C2.01258452 15.00794906 2.1144481 29.96152009 2 45 C-1.9242894 43.23516168 -3.321509 41.39240459 -5.5625 37.6875 C-6.14128906 36.74261719 -6.72007813 35.79773438 -7.31640625 34.82421875 C-7.87199219 33.89222656 -8.42757812 32.96023437 -9 32 C-9.58652344 31.09894531 -10.17304687 30.19789063 -10.77734375 29.26953125 C-11.18082031 28.52058594 -11.58429688 27.77164063 -12 27 C-11.67 26.34 -11.34 25.68 -11 25 C-10.07793671 26.18331455 -9.16268791 27.37193929 -8.25 28.5625 C-7.73953125 29.22378906 -7.2290625 29.88507813 -6.703125 30.56640625 C-4.59625523 33.57691053 -2.82306833 36.80963042 -1 40 C-0.67 26.8 -0.34 13.6 0 0 Z " fill="#847676" transform="translate(110,104)"/>
<path d="M0 0 C0.67804687 0.37511719 1.35609375 0.75023438 2.0546875 1.13671875 C5.02887967 2.77211251 8.01301652 4.38809843 11 6 C11.80179688 6.44085938 12.60359375 6.88171875 13.4296875 7.3359375 C20.64665273 11.15096626 28.23582388 13.56722482 36 16 C36.33 15.01 36.66 14.02 37 13 C39 15 39 15 39 18 C39.66 18 40.32 18 41 18 C42.32421875 19.6796875 42.32421875 19.6796875 43.6875 21.875 C44.14511719 22.59429687 44.60273437 23.31359375 45.07421875 24.0546875 C45.37972656 24.69664063 45.68523437 25.33859375 46 26 C45.67 26.66 45.34 27.32 45 28 C44.36707031 26.92621094 43.73414063 25.85242188 43.08203125 24.74609375 C39.79534524 20.16133393 35.8856117 18.84799414 30.6875 17.0625 C28.8976437 16.39885464 27.10990117 15.72948307 25.32421875 15.0546875 C24.4326709 14.71920898 23.54112305 14.38373047 22.62255859 14.03808594 C18.64154808 12.46228472 14.81887299 10.61870349 11 8.6875 C10.02293091 8.19938843 10.02293091 8.19938843 9.02612305 7.70141602 C5.80397244 6.0546151 2.70933011 4.41807713 0 2 C0 1.34 0 0.68 0 0 Z " fill="#413A3A" transform="translate(47,93)"/>
<path d="M0 0 C0.33 1.32 0.66 2.64 1 4 C11.395 3.505 11.395 3.505 22 3 C22.33 4.32 22.66 5.64 23 7 C14.75 7 6.5 7 -2 7 C-1.34 8.98 -0.68 10.96 0 13 C-1.70884005 11.37660195 -3.37446717 9.70680947 -5 8 C-5 7.34 -5 6.68 -5 6 C-3.68 5.67 -2.36 5.34 -1 5 C-0.67 3.35 -0.34 1.7 0 0 Z " fill="#5E5353" transform="translate(68,70)"/>
<path d="M0 0 C-1.38549634 4.15648901 -4.17275544 4.95621012 -7.875 6.8125 C-9.24635701 7.52032352 -10.61744879 8.22866113 -11.98828125 8.9375 C-13.00849365 9.45957031 -13.00849365 9.45957031 -14.04931641 9.9921875 C-16.74635579 11.38560159 -19.40459706 12.84607079 -22.0625 14.3125 C-25.67283107 16.29009926 -29.29846321 18.19925237 -33 20 C-31.64579084 16.75639549 -30.44600841 15.33059726 -27.375 13.640625 C-26.66859375 13.24746094 -25.9621875 12.85429687 -25.234375 12.44921875 C-24.49703125 12.05347656 -23.7596875 11.65773438 -23 11.25 C-22.26265625 10.83878906 -21.5253125 10.42757813 -20.765625 10.00390625 C-15.29671927 7 -15.29671927 7 -13 7 C-13 6.34 -13 5.68 -13 5 C-11.39967863 4.15930585 -9.79458829 3.32768495 -8.1875 2.5 C-7.29417969 2.0359375 -6.40085937 1.571875 -5.48046875 1.09375 C-3 0 -3 0 0 0 Z " fill="#644E4E" transform="translate(103,5)"/>
<path d="M0 0 C0 22.11 0 44.22 0 67 C-0.33 67 -0.66 67 -1 67 C-1 45.55 -1 24.1 -1 2 C-2.98 2.66 -4.96 3.32 -7 4 C-7 3.01 -7 2.02 -7 1 C-4 0 -4 0 0 0 Z " fill="#8E3B3B" transform="translate(111,2)"/>
<path d="M0 0 C0.33 0 0.66 0 1 0 C1.01981934 0.69971924 1.03963867 1.39943848 1.06005859 2.12036133 C1.15647552 5.35139372 1.26567275 8.58187967 1.375 11.8125 C1.4059375 12.91271484 1.436875 14.01292969 1.46875 15.14648438 C1.72062407 22.26192692 2.5105188 29.03654411 4 36 C0.125 33.375 0.125 33.375 -1 30 C-2.12409679 19.66739313 -2.14952167 10.2146691 0 0 Z " fill="#DEDEDE" transform="translate(14,58)"/>
<path d="M0 0 C3.88753404 4.51455566 5.13972285 7.43880125 5.09765625 13.328125 C5.09443359 14.12734375 5.09121094 14.9265625 5.08789062 15.75 C5.07951172 16.575 5.07113281 17.4 5.0625 18.25 C5.05798828 19.09046875 5.05347656 19.9309375 5.04882812 20.796875 C5.03707961 22.86461401 5.01914522 24.93231624 5 27 C3.02 27.99 3.02 27.99 1 29 C1.00523682 28.40574219 1.01047363 27.81148437 1.01586914 27.19921875 C1.03685591 24.4661569 1.04972845 21.7331121 1.0625 19 C1.07087891 18.06542969 1.07925781 17.13085938 1.08789062 16.16796875 C1.10708892 10.67725599 0.8134193 5.43133519 0 0 Z " fill="#CDCDCD" transform="translate(134,54)"/>
<path d="M0 0 C0.66 0 1.32 0 2 0 C2.08636719 0.7734375 2.17273437 1.546875 2.26171875 2.34375 C3.10260225 8.57708825 4.16370731 13.25259317 7.87890625 18.37890625 C9 20 9 20 10 23 C10.66 23.309375 11.32 23.61875 12 23.9375 C12.99 24.4634375 12.99 24.4634375 14 25 C14.625 27.06640625 14.625 27.06640625 15 29 C8.30265404 23.76893688 1.76083384 17.62808583 0 9 C-0.13879887 5.99103886 -0.12036541 3.00913531 0 0 Z " fill="#534C4C" transform="translate(32,66)"/>
<path d="M0 0 C0 0.99 0 1.98 0 3 C-4.07902148 4.89577379 -7.71443092 5.42948504 -12.1875 5.75 C-14.03408203 5.89695313 -14.03408203 5.89695313 -15.91796875 6.046875 C-19 6 -19 6 -21 4 C-19.55367188 3.69255859 -19.55367188 3.69255859 -18.078125 3.37890625 C-16.18320313 2.97478516 -16.18320313 2.97478516 -14.25 2.5625 C-12.99703125 2.29566406 -11.7440625 2.02882812 -10.453125 1.75390625 C-8.53943868 1.33609917 -6.62834978 0.90196123 -4.734375 0.40234375 C-3 0 -3 0 0 0 Z " fill="#EFEFEF" transform="translate(98,129)"/>
<path d="M0 0 C-0.48778252 4.27918305 -1.59618578 6.0561342 -4.875 8.8125 C-5.57367188 9.41707031 -6.27234375 10.02164063 -6.9921875 10.64453125 C-9 12 -9 12 -12 12 C-10.53033642 8.60140297 -8.61962486 6.35036291 -6 3.75 C-5.29875 3.04359375 -4.5975 2.3371875 -3.875 1.609375 C-2 0 -2 0 0 0 Z " fill="#C4C4C4" transform="translate(123,111)"/>
<path d="M0 0 C0.67804687 0.37511719 1.35609375 0.75023438 2.0546875 1.13671875 C8.30236091 4.5720738 14.60337604 7.85192329 21 11 C22.20881551 11.60320135 23.4172329 12.2072022 24.625 12.8125 C25.40875 13.204375 26.1925 13.59625 27 14 C26.01 14.495 26.01 14.495 25 15 C22.40866008 14.0623244 19.94638041 13.06302428 17.4375 11.9375 C16.71820313 11.61821533 15.99890625 11.29893066 15.2578125 10.9699707 C9.89524015 8.53205352 4.42040569 5.96608622 0 2 C0 1.34 0 0.68 0 0 Z " fill="#696767" transform="translate(47,93)"/>
<path d="M0 0 C4.42629397 3.88977349 7.28052985 8.36937108 10.3515625 13.37890625 C11.91928852 15.99518328 11.91928852 15.99518328 13.7734375 18.15234375 C14.38058594 19.06693359 14.38058594 19.06693359 15 20 C14.67 20.99 14.34 21.98 14 23 C0 3.38297872 0 3.38297872 0 0 Z " fill="#6E4949" transform="translate(68,83)"/>
<path d="M0 0 C0.66 0 1.32 0 2 0 C1.68991116 1.60463449 1.37683713 3.20869231 1.0625 4.8125 C0.88847656 5.70582031 0.71445313 6.59914063 0.53515625 7.51953125 C0 10 0 10 -1 13 C-1.66 13 -2.32 13 -3 13 C-3 13.66 -3 14.32 -3 15 C-3.66 15 -4.32 15 -5 15 C-2.42465753 2.42465753 -2.42465753 2.42465753 0 0 Z " fill="#D0D0D0" transform="translate(136,82)"/>
<path d="M0 0 C1.8515625 0.1953125 1.8515625 0.1953125 4 1 C5.3359375 3.1796875 5.3359375 3.1796875 6.375 5.875 C6.73335937 6.75929688 7.09171875 7.64359375 7.4609375 8.5546875 C7.63882812 9.36164063 7.81671875 10.16859375 8 11 C7.01 12.485 7.01 12.485 6 14 C4.9923048 12.2335343 3.99408286 10.46166177 3 8.6875 C2.443125 7.70136719 1.88625 6.71523437 1.3125 5.69921875 C0 3 0 3 0 0 Z " fill="#C1C1C1" transform="translate(15,92)"/>
<path d="M0 0 C0.9796875 0.0515625 1.959375 0.103125 2.96875 0.15625 C4.49242188 0.25292969 4.49242188 0.25292969 6.046875 0.3515625 C7.59375 0.43664062 7.59375 0.43664062 9.171875 0.5234375 C11.71426705 0.6646815 14.25563738 0.81606996 16.796875 0.9765625 C16.796875 1.3065625 16.796875 1.6365625 16.796875 1.9765625 C9.206875 1.9765625 1.616875 1.9765625 -6.203125 1.9765625 C-5.543125 4.2865625 -4.883125 6.5965625 -4.203125 8.9765625 C-5.91196505 7.35316445 -7.57759217 5.68337197 -9.203125 3.9765625 C-9.203125 3.3165625 -9.203125 2.6565625 -9.203125 1.9765625 C-5.96373384 0.0395388 -3.7428729 -0.21760889 0 0 Z " fill="#2B1E1E" transform="translate(72.203125,74.0234375)"/>
<path d="M0 0 C-1.31115051 3.93345152 -2.84212778 4.32374076 -6.4375 6.25 C-7.42621094 6.79140625 -8.41492188 7.3328125 -9.43359375 7.890625 C-10.28050781 8.25671875 -11.12742187 8.6228125 -12 9 C-12.66 8.67 -13.32 8.34 -14 8 C-13 5 -13 5 -10.8203125 3.61328125 C-9.93085937 3.18402344 -9.04140625 2.75476563 -8.125 2.3125 C-7.24070312 1.87550781 -6.35640625 1.43851562 -5.4453125 0.98828125 C-3 0 -3 0 0 0 Z " fill="#917272" transform="translate(103,5)"/>
<path d="M0 0 C8.25 0 16.5 0 25 0 C25 0.33 25 0.66 25 1 C24.11477661 1.01401855 24.11477661 1.01401855 23.21166992 1.02832031 C20.53609795 1.08202657 17.86227447 1.16566852 15.1875 1.25 C14.25873047 1.26417969 13.32996094 1.27835937 12.37304688 1.29296875 C11.0340332 1.34130859 11.0340332 1.34130859 9.66796875 1.390625 C8.84578857 1.41157227 8.0236084 1.43251953 7.17651367 1.45410156 C4.28700179 2.17882939 3.52623827 3.52175171 2 6 C1.34 4.02 0.68 2.04 0 0 Z " fill="#DF1414" transform="translate(66,77)"/>
<path d="M0 0 C4.80270317 4.23767926 8.16705472 9.25622779 11 15 C11 15.99 11 16.98 11 18 C8.29746086 16.64873043 7.56310375 14.62350836 6.15234375 12.046875 C4.54121365 9.18507102 2.74683663 6.4492164 0.953125 3.69921875 C0 2 0 2 0 0 Z " fill="#968483" transform="translate(98,129)"/>
<path d="M0 0 C0 0.99 0 1.98 0 3 C-6.93 2.67 -13.86 2.34 -21 2 C-21 1.67 -21 1.34 -21 1 C-13.98441385 0.4011085 -7.04321257 -0.13810221 0 0 Z " fill="#E6E6E6" transform="translate(90,9)"/>
<path d="M0 0 C3.47132095 1.40929697 4.88093274 2.90605083 6.75 6.125 C7.39195313 7.21167969 7.39195313 7.21167969 8.046875 8.3203125 C8.51867187 9.15175781 8.51867187 9.15175781 9 10 C5.99581131 9.67522284 4.42029035 9.42029035 2.25 7.25 C0.89615784 4.81308412 0.38181347 2.74905699 0 0 Z " fill="#D9D9D9" transform="translate(21,103)"/>
<path d="M0 0 C2.31 0 4.62 0 7 0 C6.04663979 1.31611677 5.08714226 2.62778961 4.125 3.9375 C3.59132813 4.66839844 3.05765625 5.39929687 2.5078125 6.15234375 C1 8 1 8 -1 9 C-0.835 8.071875 -0.67 7.14375 -0.5 6.1875 C0.07748388 3.04378647 0.07748388 3.04378647 0 0 Z " fill="#402121" transform="translate(73,57)"/>
<path d="M0 0 C0.33 0.99 0.66 1.98 1 3 C-1.64 5.64 -4.28 8.28 -7 11 C-7.66 10.34 -8.32 9.68 -9 9 C-6.03 6.03 -3.06 3.06 0 0 Z " fill="#564140" transform="translate(52,36)"/>
<path d="M0 0 C0 0.66 0 1.32 0 2 C0.66 2.33 1.32 2.66 2 3 C-1.3125 4.125 -1.3125 4.125 -5 5 C-5.99 4.34 -6.98 3.68 -8 3 C-2.25 0 -2.25 0 0 0 Z " fill="#BDBDBD" transform="translate(55,11)"/>
<path d="M0 0 C0 0.99 0 1.98 0 3 C-4.43076923 5.09230769 -4.43076923 5.09230769 -7.3125 4.625 C-7.869375 4.41875 -8.42625 4.2125 -9 4 C-8.01 3.67 -7.02 3.34 -6 3 C-6.33 2.34 -6.66 1.68 -7 1 C-4.50935112 0.31292445 -2.62113708 0 0 0 Z " fill="#BEBEBE" transform="translate(98,129)"/>
<path d="M0 0 C3.63 1.98 7.26 3.96 11 6 C10.34 6.66 9.68 7.32 9 8 C7.49460339 7.05016642 5.99579653 6.08988109 4.5 5.125 C3.6646875 4.59132813 2.829375 4.05765625 1.96875 3.5078125 C1.3190625 3.01023437 0.669375 2.51265625 0 2 C0 1.34 0 0.68 0 0 Z " fill="#5F5C5C" transform="translate(47,93)"/>
<path d="M0 0 C0.66 0 1.32 0 2 0 C2.33 3.3 2.66 6.6 3 10 C2.01 9.67 1.02 9.34 0 9 C0 6.03 0 3.06 0 0 Z " fill="#524343" transform="translate(32,66)"/>
<path d="M0 0 C0 3.90838866 -1.50567876 5.11594107 -4 8 C-4.33 6.35 -4.66 4.7 -5 3 C-3.35 2.01 -1.7 1.02 0 0 Z " fill="#DEDEDE" transform="translate(27,32)"/>
<path d="M0 0 C2.24606427 1.77444972 2.95081002 2.58352485 3.29296875 5.48046875 C3.25816406 6.37378906 3.22335938 7.26710938 3.1875 8.1875 C3.16042969 9.08855469 3.13335937 9.98960938 3.10546875 10.91796875 C3.07066406 11.60503906 3.03585938 12.29210937 3 13 C2.67 13 2.34 13 2 13 C1.66127487 11.58461283 1.32925376 10.16762037 1 8.75 C0.814375 7.96109375 0.62875 7.1721875 0.4375 6.359375 C0 4 0 4 0 0 Z " fill="#F9F9F9" transform="translate(134,54)"/>
<path d="M0 0 C2.12508244 3.18762365 2.5020163 5.26512223 3 9 C1.68 8.67 0.36 8.34 -1 8 C-0.67 5.36 -0.34 2.72 0 0 Z " fill="#B2B2B2" transform="translate(134,48)"/>
<path d="M0 0 C2.86724686 0.57344937 3.8614515 0.8614515 6 3 C6 3.99 6 4.98 6 6 C3.37812506 4.95125002 2.20628639 4.35068687 0.75 1.875 C0.5025 1.25625 0.255 0.6375 0 0 Z " fill="#DADADA" transform="translate(112,21)"/>
<path d="M0 0 C3.48331435 3.01887244 4.79157144 5.56909529 6 10 C2.46413986 6.82679218 0.41421969 4.83256305 0 0 Z " fill="#865050" transform="translate(87,111)"/>
<path d="M0 0 C3.77545388 1.09068668 6.47043472 1.9083091 9 5 C7.68428397 4.7452486 6.37239624 4.47065859 5.0625 4.1875 C4.33160156 4.03667969 3.60070312 3.88585937 2.84765625 3.73046875 C2.23792969 3.48941406 1.62820312 3.24835938 1 3 C0.67 2.01 0.34 1.02 0 0 Z " fill="#4D4B4B" transform="translate(73,106)"/>
</svg>
