<?xml version="1.0" encoding="UTF-8"?>
<svg version="1.1" xmlns="http://www.w3.org/2000/svg" width="460" height="460">
<path d="M0 0 C0.495 1.485 0.495 1.485 1 3 C3.47266765 2.65555119 3.47266765 2.65555119 6 2 C6.33 1.34 6.66 0.68 7 0 C21.19 0 35.38 0 50 0 C50 0.66 50 1.32 50 2 C72.44 2 94.88 2 118 2 C118 2.33 118 2.66 118 3 C98.53 3.33 79.06 3.66 59 4 C65.36926926 5.84356736 65.36926926 5.84356736 71.56811523 6.22705078 C72.60866562 6.22689972 73.649216 6.22674866 74.72129822 6.22659302 C75.82260574 6.21627045 76.92391327 6.20594788 78.05859375 6.1953125 C79.77502831 6.19106766 79.77502831 6.19106766 81.52613831 6.18673706 C85.16336743 6.17558578 88.80034591 6.15049014 92.4375 6.125 C94.91080372 6.11496369 97.38411132 6.10583898 99.85742188 6.09765625 C105.90503273 6.07566296 111.95249845 6.04223564 118 6 C118 8.97 118 11.94 118 15 C106.12 15.33 94.24 15.66 82 16 C93.88 16 105.76 16 118 16 C118 16.33 118 16.66 118 17 C106.78 17.33 95.56 17.66 84 18 C87.96 21.63 91.92 25.26 96 29 C97.65 30.65 99.3 32.3 101 34 C103.09636231 34.67098376 103.09636231 34.67098376 105.20703125 34.48828125 C105.88483643 34.47579346 106.5626416 34.46330566 107.26098633 34.45043945 C108.10298584 34.40491943 108.94498535 34.35939941 109.8125 34.3125 C112.514375 34.209375 115.21625 34.10625 118 34 C118 41.26 118 48.52 118 56 C116.35 56 114.7 56 113 56 C113.27714844 56.80824219 113.55429687 57.61648437 113.83984375 58.44921875 C114.20207031 59.51785156 114.56429687 60.58648437 114.9375 61.6875 C115.47697266 63.27111328 115.47697266 63.27111328 116.02734375 64.88671875 C118.33248981 72.26503765 118.25528553 79.5258889 118.29516602 87.18945312 C118.30661526 88.71558964 118.32695366 90.24168838 118.35668945 91.76757812 C118.55428108 101.93195619 117.65100402 110.36654394 114 120 C113.71012207 120.86181885 113.42024414 121.7236377 113.12158203 122.61157227 C107.97948878 137.77049009 95.24835926 156.42781785 80.97753906 164.08520508 C80.32495117 164.3870874 79.67236328 164.68896973 79 165 C77.22245026 166.03996876 75.44504795 167.08019276 73.66918945 168.12304688 C61.60300604 175.1440006 49.80469704 180.19366494 35.63671875 180.09765625 C34.84473587 180.0962413 34.05275299 180.09482635 33.23677063 180.09336853 C30.72030781 180.08779457 28.20393569 180.07524693 25.6875 180.0625 C23.97591275 180.05748163 22.26432409 180.05291931 20.55273438 180.04882812 C16.36845492 180.03783368 12.18424281 180.02058707 8 180 C8 179.34 8 178.68 8 178 C7.40832031 177.87882813 6.81664062 177.75765625 6.20703125 177.6328125 C1.96196415 176.73255357 -2.02439661 175.79543379 -6 174 C-6 175.98 -6 177.96 -6 180 C-13.92 180 -21.84 180 -30 180 C-29.938125 176.761875 -29.87625 173.52375 -29.8125 170.1875 C-29.92431819 163.70503993 -30.25516005 158.57581026 -34.80932617 153.68676758 C-38.25239532 150.53896244 -41.72571099 147.89855593 -46 146 C-45.34 145.67 -44.68 145.34 -44 145 C-44.77923828 143.76636719 -44.77923828 143.76636719 -45.57421875 142.5078125 C-60 119.41589649 -60 119.41589649 -60 110 C-60.66 109.67 -61.32 109.34 -62 109 C-62.04940929 103.50074579 -62.08572395 98.00162058 -62.10986328 92.50219727 C-62.11992567 90.63108062 -62.13357691 88.75997972 -62.15087891 86.88891602 C-62.17511684 84.20064409 -62.18648063 81.51257994 -62.1953125 78.82421875 C-62.20563507 77.98662521 -62.21595764 77.14903168 -62.22659302 76.28605652 C-62.22774341 70.34161512 -62.22774341 70.34161512 -60 67 C-60.66 66.67 -61.32 66.34 -62 66 C-61.01 66 -60.02 66 -59 66 C-58.67 64.35 -58.34 62.7 -58 61 C-59.32 60.67 -60.64 60.34 -62 60 C-60.35 60 -58.7 60 -57 60 C-56.67 58.80375 -56.34 57.6075 -56 56.375 C-54.47821891 51.77289874 -52.32809048 47.6942631 -49.9375 43.5 C-49.58494141 42.87657715 -49.23238281 42.2531543 -48.86914062 41.61083984 C-46.25877954 37.12938977 -46.25877954 37.12938977 -44 36 C-43.33219719 34.66723534 -42.66570497 33.33381375 -42 32 C-34.44715569 22.92591999 -25.88332506 14.73626183 -15 10 C-13.20602417 9.06692636 -11.41429807 8.12951281 -9.625 7.1875 C-6.41621013 5.52944637 -3.56865482 4.58636908 0 4 C0 2.68 0 1.36 0 0 Z M66 7 C70.29360269 9.14680135 71.64777742 9.12524159 76.25 8.625 C77.86648438 8.45871094 77.86648438 8.45871094 79.515625 8.2890625 C80.74539063 8.14597656 80.74539063 8.14597656 82 8 C82 7.67 82 7.34 82 7 C76.72 7 71.44 7 66 7 Z M89 7 C89 7.33 89 7.66 89 8 C93.29 8 97.58 8 102 8 C102 7.67 102 7.34 102 7 C97.71 7 93.42 7 89 7 Z M88 10 C87.01 11.485 87.01 11.485 86 13 C86.99 13 87.98 13 89 13 C89 12.01 89 11.02 89 10 C88.67 10 88.34 10 88 10 Z M102 10 C102 10.99 102 11.98 102 13 C102.99 13 103.98 13 105 13 C104.01 12.01 103.02 11.02 102 10 Z M-25 31 C-25.75539063 31.65226562 -26.51078125 32.30453125 -27.2890625 32.9765625 C-42.59981283 47.02457053 -50.0296853 67.69176723 -50.9921875 88.05078125 C-51.03827425 111.34763112 -42.52262724 130.69799137 -26.56640625 147.578125 C-20.12299167 154.02178365 -20.12299167 154.02178365 -12 157 C-11.99742187 155.70964844 -11.99484375 154.41929687 -11.9921875 153.08984375 C-11.95464691 151.37236189 -11.91549909 149.65491464 -11.875 147.9375 C-11.87886719 146.66616211 -11.87886719 146.66616211 -11.8828125 145.36914062 C-11.7325317 140.50379984 -11.24218524 137.76709333 -7.8828125 134.12890625 C-7.32223145 133.61529541 -6.76165039 133.10168457 -6.18408203 132.57250977 C-5.79333496 132.05358154 -5.40258789 131.53465332 -5 131 C-5.23572169 128.83242468 -5.23572169 128.83242468 -6 127 C-4.68 127 -3.36 127 -2 127 C-0.4557516 125.79768547 -0.4557516 125.79768547 0.796875 124.078125 C1.28027344 123.46453125 1.76367188 122.8509375 2.26171875 122.21875 C2.75285156 121.5690625 3.24398437 120.919375 3.75 120.25 C4.50990234 119.29867187 4.50990234 119.29867187 5.28515625 118.328125 C8.51641811 114.24837216 8.51641811 114.24837216 9 109 C9.33 109 9.66 109 10 109 C13.26424169 107.91191944 13.72586066 107.39600227 15.6796875 104.74609375 C16.19031738 104.06385742 16.70094727 103.38162109 17.22705078 102.67871094 C17.77087402 101.93911133 18.31469727 101.19951172 18.875 100.4375 C24.01104869 93.57090571 29.29176279 86.86181028 34.77294922 80.26733398 C35.2835791 79.64802002 35.79420898 79.02870605 36.3203125 78.390625 C36.76648926 77.85469727 37.21266602 77.31876953 37.67236328 76.76660156 C39.28087368 74.6262593 40.62249868 72.29583554 42 70 C31.77 70 21.54 70 11 70 C10.79060013 75.6981161 10.79060013 75.6981161 10.61206055 81.3972168 C10.39963262 86.00602415 10.01727007 89.28643683 7 93 C4.3125 94.3125 4.3125 94.3125 2 95 C2 95.99 2 96.98 2 98 C1.67 97.01 1.34 96.02 1 95 C-0.4540625 94.5359375 -0.4540625 94.5359375 -1.9375 94.0625 C-5 93 -5 93 -6.16552734 91.47753906 C-7.40389179 87.80085023 -7.3595305 84.13731991 -7.4140625 80.296875 C-7.43170654 79.5538916 -7.44935059 78.8109082 -7.4675293 78.04541016 C-7.53040684 75.28049014 -7.5767243 72.51521351 -7.625 69.75 C-7.74875 63.5625 -7.8725 57.375 -8 51 C16.75 51 41.5 51 67 51 C67 55.62 67 60.24 67 65 C67.99 65 68.98 65 70 65 C69.01 65.66 68.02 66.32 67 67 C66.03138362 68.67494218 65.06727049 70.35292571 64.14208984 72.05224609 C62.18791072 75.38496115 59.74137314 78.31742597 57.3125 81.3125 C53.83619348 85.44332608 53.83619348 85.44332608 51 90 C60.9 90 70.8 90 81 90 C81 106.83 81 123.66 81 141 C80.34 140.67 79.68 140.34 79 140 C79.33 139.67 79.66 139.34 80 139 C80.09311889 137.49581261 80.11746028 135.98728644 80.11352539 134.48022461 C80.11344986 133.51930405 80.11337433 132.55838348 80.11329651 131.56834412 C80.10813522 130.523564 80.10297394 129.47878387 80.09765625 128.40234375 C80.0962413 127.33834854 80.09482635 126.27435333 80.09336853 125.17811584 C80.08775064 121.76454917 80.07519511 118.351047 80.0625 114.9375 C80.05748731 112.62955824 80.052924 110.32161545 80.04882812 108.01367188 C80.0377754 102.34242574 80.02101987 96.67121747 80 91 C62.33561445 88.77026221 62.33561445 88.77026221 46.09765625 93.25 C43.58982453 96.37157984 41.81767613 99.43687328 40 103 C38.37478961 105.31636204 36.62320838 107.52580262 34.875 109.75 C33.58002061 111.49755004 32.28706225 113.24661084 31 115 C34.13349732 116.04449911 34.98968256 115.93423645 38 115 C27.63296649 117.00652261 22.90072114 124.25387043 17.2578125 132.56640625 C16.12796559 134.35054304 15.05531375 136.1707895 14 138 C18.02591963 140.01295982 23.13744507 139.22901574 27.5625 139.25 C28.62275391 139.270625 29.68300781 139.29125 30.77539062 139.3125 C38.72154101 139.35171604 45.30493253 138.46337831 52 134 C52.55054272 130.78837914 52.55054272 130.78837914 52.625 127.125 C52.96465655 119.37759585 52.96465655 119.37759585 54 116 C57.69974059 114.81608301 61.13799438 114.72414246 65 115 C67.140625 116.12109375 67.140625 116.12109375 69 118 C72.44373659 129.64697705 71.21370499 143.0045744 71 155 C87.14033492 146.36122989 97.31829394 130.28018292 102.93359375 113.15234375 C109.02809476 91.95281151 106.63788901 69.79270245 96.14599609 50.38647461 C85.15505658 31.25015428 67.47336028 18.44176504 46.48046875 12.2578125 C21.06511846 6.41428314 -5.86069361 13.47242468 -25 31 Z M101 35 C102 37 102 37 102 37 Z M104 40 C105 42 105 42 105 42 Z M106 43 C107 45 107 45 107 45 Z M108 46 C109 48 109 48 109 48 Z M109 48 C110 50 110 50 110 50 Z M110 50 C111 52 111 52 111 52 Z M111 52 C112 54 112 54 112 54 Z M112 54 C112.33 54.66 112.66 55.32 113 56 C113.33 55.34 113.66 54.68 114 54 C113.34 54 112.68 54 112 54 Z M45 138 C45 138.33 45 138.66 45 139 C47.31 139 49.62 139 52 139 C52 138.01 52 137.02 52 136 C49.3534665 136 47.4191837 136.98139634 45 138 Z M-11 158 C2.63734372 168.22800779 21.40519593 170.61023759 37.94140625 168.49609375 C48.1066914 166.9033874 57.65910087 164.25567434 66 158 C57.09 158 48.18 158 39 158 C37.68 160.31 36.36 162.62 35 165 C32.03801932 166.87072464 30.43189843 167.01762851 26.9375 166.875 C23.521832 165.85756698 22.20938717 164.76173396 20 162 C19.34 160.68 18.68 159.36 18 158 C8.43 158 -1.14 158 -11 158 Z M-16 169 C-15.01 169.99 -14.02 170.98 -13 172 C-12.34 171.67 -11.68 171.34 -11 171 C-13.475 170.01 -13.475 170.01 -16 169 Z " fill="#060606" transform="translate(202,140)"/>
<path d="M0 0 C2.02237052 0.95394836 4.0282696 1.94535351 6 3 C6 3.66 6 4.32 6 5 C6.721875 5.28875 7.44375 5.5775 8.1875 5.875 C9.115625 6.24625 10.04375 6.6175 11 7 C12.2684375 7.433125 12.2684375 7.433125 13.5625 7.875 C16.4059392 9.18735655 17.81644992 10.75406277 20 13 C21.38909215 13.98870676 22.78555008 14.96711117 24.1875 15.9375 C26.70680506 17.80817801 27.85146181 18.67947022 29.1875 21.5625 C28.92934733 24.91848473 28.28257433 26.50343433 26 29 C20.17080148 29.70635331 16.82059001 28.04187794 12.0625 25 C4.35244439 20.55609698 -3.20797899 18.72318181 -12 21 C-15.91670902 22.64501779 -19.32760506 24.83757565 -22.81640625 27.25 C-26.54081396 29.29728178 -28.81069197 29.45193747 -33 29 C-35 27.4375 -35 27.4375 -36 25 C-36.125 21.5625 -36.125 21.5625 -35 18 C-32.47824001 15.48452869 -29.67267435 13 -26 13 C-26.33 11.68 -26.66 10.36 -27 9 C-26.01 8.34 -25.02 7.68 -24 7 C-24.33 8.32 -24.66 9.64 -25 11 C-24.44570312 10.6390625 -23.89140625 10.278125 -23.3203125 9.90625 C-22.59585938 9.4421875 -21.87140625 8.978125 -21.125 8.5 C-20.40570313 8.0359375 -19.68640625 7.571875 -18.9453125 7.09375 C-17 6 -17 6 -15 6 C-15 5.34 -15 4.68 -15 4 C-13.4470724 3.12855131 -11.88214564 2.27846343 -10.3125 1.4375 C-9.44238281 0.96183594 -8.57226562 0.48617187 -7.67578125 -0.00390625 C-4.55357127 -1.1661888 -3.13930632 -0.99135989 0 0 Z M-9 19 C-5.42355152 20.2380014 -2.66305234 19.74926071 1 19 C-3.6870659 15.37130382 -3.9374755 15.88460031 -9 19 Z " fill="#030303" transform="translate(235,153)"/>
<path d="M0 0 C2 2 2 2 2.125 5.625 C2.08375 6.73875 2.0425 7.8525 2 9 C2.66 9.33 3.32 9.66 4 10 C4.125 12.875 4.125 12.875 4 16 C3.34 16.66 2.68 17.32 2 18 C1.83312552 20.58354218 1.83312552 20.58354218 2 23 C2.66 22.67 3.32 22.34 4 22 C3.67 21.01 3.34 20.02 3 19 C5 18 7 17 9 16 C14.75236931 24.66279425 14.75236931 24.66279425 15.625 29.375 C14.85252674 32.61938769 13.5575027 33.92202905 11 36 C12.32 36.33 13.64 36.66 15 37 C15 40.63 15 44.26 15 48 C13.68 48.66 12.36 49.32 11 50 C11.66 50.433125 12.32 50.86625 13 51.3125 C16.21000309 55.62594166 15.25122988 59.72417254 15 65 C11.04 65 7.08 65 3 65 C4.32 64.01 5.64 63.02 7 62 C7.48168728 59.72110658 7.48168728 59.72110658 7.25 57.3125 C7.21390625 56.50425781 7.1778125 55.69601562 7.140625 54.86328125 C7.09421875 54.24839844 7.0478125 53.63351562 7 53 C6.01 52.67 5.02 52.34 4 52 C4.020625 50.9275 4.04125 49.855 4.0625 48.75 C4.0142016 45.85209576 3.86844115 43.71387859 3 41 C4.98 40.505 4.98 40.505 7 40 C7.020625 38.741875 7.04125 37.48375 7.0625 36.1875 C7.07410156 35.47980469 7.08570313 34.77210938 7.09765625 34.04296875 C7.08263217 31.79694539 7.08263217 31.79694539 6 29 C4.35 30.98 2.7 32.96 1 35 C1.99 35.33 2.98 35.66 4 36 C4 37.32 4 38.64 4 40 C3.01 40 2.02 40 1 40 C1.165 41.010625 1.33 42.02125 1.5 43.0625 C1.96985769 46.76262933 2.07599849 50.27607391 2 54 C2.66 54.33 3.32 54.66 4 55 C4.125 57.875 4.125 57.875 4 61 C3.34 61.66 2.68 62.32 2 63 C2 63.66 2 64.32 2 65 C1.34 65 0.68 65 0 65 C0 43.55 0 22.1 0 0 Z M4 20 C8 21 8 21 8 21 Z M1 28 C1.33 28.66 1.66 29.32 2 30 C2.33 29.34 2.66 28.68 3 28 C2.34 28 1.68 28 1 28 Z " fill="#000000" transform="translate(140,255)"/>
<path d="M0 0 C9.9 0 19.8 0 30 0 C30 1.98 30 3.96 30 6 C26.12834128 6.37263706 22.25470501 6.66229601 18.375 6.9375 C16.73337891 7.09702148 16.73337891 7.09702148 15.05859375 7.25976562 C13.99511719 7.32744141 12.93164062 7.39511719 11.8359375 7.46484375 C10.86188965 7.543396 9.8878418 7.62194824 8.88427734 7.70288086 C6 7 6 7 0 0 Z " fill="#000000" transform="translate(290,160)"/>
<path d="M0 0 C2.125 0.375 2.125 0.375 4 1 C4 0.67 4 0.34 4 0 C6.97 0 9.94 0 13 0 C13 3.66666667 13 7.33333333 13 11 C10.36 11 7.72 11 5 11 C4.67 10.34 4.34 9.68 4 9 C3.34 9 2.68 9 2 9 C2 10.32 2 11.64 2 13 C5.63 13.33 9.26 13.66 13 14 C13 14.33 13 14.66 13 15 C8.05 15 3.1 15 -2 15 C-2.1953125 5.0390625 -2.1953125 5.0390625 -2 2 C-1.34 1.34 -0.68 0.68 0 0 Z M0 2 C-0.33 2.66 -0.66 3.32 -1 4 C-0.01 4 0.98 4 2 4 C2 3.34 2 2.68 2 2 C1.34 2 0.68 2 0 2 Z M6 5 C6 5.33 6 5.66 6 6 C7.98 6 9.96 6 12 6 C12 5.67 12 5.34 12 5 C10.02 5 8.04 5 6 5 Z M6 7 C6 7.33 6 7.66 6 8 C7.98 8 9.96 8 12 8 C12 7.67 12 7.34 12 7 C10.02 7 8.04 7 6 7 Z " fill="#000000" transform="translate(142,140)"/>
<path d="M0 0 C3.63 0 7.26 0 11 0 C10.67 0.66 10.34 1.32 10 2 C9.96962979 4.56845219 10.06688815 7.120762 10.16015625 9.6875 C10 12 10 12 8 14 C5.31160615 14.26991906 2.70858064 14.08737357 0 14 C0 9.38 0 4.76 0 0 Z " fill="#000000" transform="translate(144,156)"/>
<path d="M0 0 C4.29 0 8.58 0 13 0 C13 2.31 13 4.62 13 7 C8.71 7 4.42 7 0 7 C0 4.69 0 2.38 0 0 Z " fill="#000000" transform="translate(156,144)"/>
<path d="M0 0 C18.48 0 36.96 0 56 0 C56 0.33 56 0.66 56 1 C37.52 1 19.04 1 0 1 C0 0.67 0 0.34 0 0 Z " fill="#000000" transform="translate(264,144)"/>
<path d="M0 0 C4.29 0 8.58 0 13 0 C13 1.98 13 3.96 13 6 C8.71 6 4.42 6 0 6 C0 4.02 0 2.04 0 0 Z M5 1 C5 1.66 5 2.32 5 3 C5.99 3 6.98 3 8 3 C8 2.34 8 1.68 8 1 C7.01 1 6.02 1 5 1 Z M3 4 C3 4.33 3 4.66 3 5 C5.31 5 7.62 5 10 5 C10 4.67 10 4.34 10 4 C7.69 4 5.38 4 3 4 Z " fill="#000000" transform="translate(156,310)"/>
<path d="M0 0 C0.66 0.66 1.32 1.32 2 2 C1.39414063 1.86722656 0.78828125 1.73445312 0.1640625 1.59765625 C-9.26347334 -0.38937823 -18.37016054 -1.18440118 -28 -1 C-28 -1.33 -28 -1.66 -28 -2 C-18.23711244 -3.95257751 -9.53323388 -2.72735562 0 0 Z " fill="#626262" transform="translate(248,181)"/>
<path d="M0 0 C10.89 0 21.78 0 33 0 C33 0.33 33 0.66 33 1 C22.11 1 11.22 1 0 1 C0 0.67 0 0.34 0 0 Z " fill="#000000" transform="translate(287,158)"/>
<path d="M0 0 C0.33 0 0.66 0 1 0 C1.06058594 1.134375 1.12117187 2.26875 1.18359375 3.4375 C1.26808494 4.95834135 1.35272851 6.47917425 1.4375 8 C1.47681641 8.74378906 1.51613281 9.48757812 1.55664062 10.25390625 C1.83661727 15.20733918 2.33510571 20.08313469 3 25 C-0.28860286 21.71139714 -0.05380838 18.0327079 -0.09765625 13.57421875 C-0.09106137 11.9452837 -0.07921288 10.31636266 -0.0625 8.6875 C-0.05798828 7.85154297 -0.05347656 7.01558594 -0.04882812 6.15429688 C-0.03710548 4.10283351 -0.01917203 2.05140727 0 0 Z " fill="#595959" transform="translate(179,221)"/>
<path d="M0 0 C0 0.33 0 0.66 0 1 C-6.6 1 -13.2 1 -20 1 C-13.49315531 -2.25342234 -7.01470755 -1.19399277 0 0 Z " fill="#000000" transform="translate(320,170)"/>
<path d="M0 0 C4.29 0 8.58 0 13 0 C13 0.66 13 1.32 13 2 C8.71 2 4.42 2 0 2 C0 1.34 0 0.68 0 0 Z " fill="#000000" transform="translate(156,140)"/>
<path d="M0 0 C7.59 0 15.18 0 23 0 C23 0.33 23 0.66 23 1 C15.41 1 7.82 1 0 1 C0 0.67 0 0.34 0 0 Z " fill="#000000" transform="translate(297,167)"/>
<path d="M0 0 C7.26 0 14.52 0 22 0 C22 0.33 22 0.66 22 1 C14.74 1 7.48 1 0 1 C0 0.67 0 0.34 0 0 Z " fill="#000000" transform="translate(264,140)"/>
<path d="M0 0 C0.33 0 0.66 0 1 0 C1 6.93 1 13.86 1 21 C0.67 21 0.34 21 0 21 C0 14.07 0 7.14 0 0 Z " fill="#000000" transform="translate(170,299)"/>
<path d="M0 0 C0.99 0.33 1.98 0.66 3 1 C2.88637738 2.4800841 2.75877092 3.95910074 2.625 5.4375 C2.52058594 6.67306641 2.52058594 6.67306641 2.4140625 7.93359375 C2.27742187 8.61550781 2.14078125 9.29742187 2 10 C1.01 10.495 1.01 10.495 0 11 C0 7.37 0 3.74 0 0 Z " fill="#000000" transform="translate(140,158)"/>
<path d="M0 0 C1.28497537 3.85492611 0.4052209 5.40346836 -0.9375 9.1875 C-1.31777344 10.27417969 -1.69804687 11.36085937 -2.08984375 12.48046875 C-2.39019531 13.31191406 -2.69054687 14.14335937 -3 15 C-3.33 15 -3.66 15 -4 15 C-3.50341703 9.33895411 -2.45489316 5.12325529 0 0 Z " fill="#5C5C5C" transform="translate(184,206)"/>
<path d="M0 0 C6.27 0 12.54 0 19 0 C19 0.33 19 0.66 19 1 C12.73 1 6.46 1 0 1 C0 0.67 0 0.34 0 0 Z " fill="#000000" transform="translate(301,172)"/>
<path d="M0 0 C4.29 0 8.58 0 13 0 C13 0.33 13 0.66 13 1 C8.71 1 4.42 1 0 1 C0 0.67 0 0.34 0 0 Z " fill="#000000" transform="translate(156,308)"/>
<path d="M0 0 C4.29 0 8.58 0 13 0 C13 0.33 13 0.66 13 1 C8.71 1 4.42 1 0 1 C0 0.67 0 0.34 0 0 Z " fill="#000000" transform="translate(156,306)"/>
<path d="M0 0 C4.29 0 8.58 0 13 0 C13 0.33 13 0.66 13 1 C8.71 1 4.42 1 0 1 C0 0.67 0 0.34 0 0 Z " fill="#000000" transform="translate(156,304)"/>
<path d="M0 0 C4.29 0 8.58 0 13 0 C13 0.33 13 0.66 13 1 C8.71 1 4.42 1 0 1 C0 0.67 0 0.34 0 0 Z " fill="#000000" transform="translate(156,152)"/>
<path d="M0 0 C3.96 0 7.92 0 12 0 C12 0.33 12 0.66 12 1 C8.04 1 4.08 1 0 1 C0 0.67 0 0.34 0 0 Z " fill="#000000" transform="translate(179,142)"/>
<path d="M0 0 C3.63 0 7.26 0 11 0 C11 0.33 11 0.66 11 1 C7.37 1 3.74 1 0 1 C0 0.67 0 0.34 0 0 Z " fill="#000000" transform="translate(309,140)"/>
<path d="M0 0 C2.97 0 5.94 0 9 0 C9 0.33 9 0.66 9 1 C6.03 1 3.06 1 0 1 C0 0.67 0 0.34 0 0 Z " fill="#000000" transform="translate(158,302)"/>
<path d="M0 0 C-1.8125 1.0625 -1.8125 1.0625 -4 2 C-4.99 1.67 -5.98 1.34 -7 1 C-4.53721199 -0.231394 -2.7204945 -0.07159196 0 0 Z " fill="#515151" transform="translate(220,180)"/>
<path d="M0 0 C2.97 0 5.94 0 9 0 C9 0.33 9 0.66 9 1 C6.03 1 3.06 1 0 1 C0 0.67 0 0.34 0 0 Z " fill="#000000" transform="translate(293,140)"/>
<path d="M0 0 C1.32 0.99 2.64 1.98 4 3 C3.67 3.66 3.34 4.32 3 5 C1.5 3.625 1.5 3.625 0 2 C0 1.34 0 0.68 0 0 Z " fill="#797979" transform="translate(190,261)"/>
<path d="M0 0 C2.64 0 5.28 0 8 0 C8 0.33 8 0.66 8 1 C5.36 1 2.72 1 0 1 C0 0.67 0 0.34 0 0 Z " fill="#000000" transform="translate(147,152)"/>
<path d="M0 0 C2.64 0 5.28 0 8 0 C8 0.33 8 0.66 8 1 C5.36 1 2.72 1 0 1 C0 0.67 0 0.34 0 0 Z " fill="#000000" transform="translate(181,144)"/>
<path d="M0 0 C0.66 0.66 1.32 1.32 2 2 C0.02 2 -1.96 2 -4 2 C-2.68 1.34 -1.36 0.68 0 0 Z " fill="#000000" transform="translate(164,293)"/>
<path d="M0 0 C1.98 0 3.96 0 6 0 C6 0.33 6 0.66 6 1 C4.02 1 2.04 1 0 1 C0 0.67 0 0.34 0 0 Z " fill="#000000" transform="translate(310,301)"/>
<path d="M0 0 C0.33 0 0.66 0 1 0 C1 1.98 1 3.96 1 6 C0.67 6 0.34 6 0 6 C0 4.02 0 2.04 0 0 Z " fill="#000000" transform="translate(308,294)"/>
<path d="M0 0 C1.98 0 3.96 0 6 0 C6 0.33 6 0.66 6 1 C4.02 1 2.04 1 0 1 C0 0.67 0 0.34 0 0 Z " fill="#000000" transform="translate(158,292)"/>
<path d="M0 0 C1.98 0 3.96 0 6 0 C6 0.33 6 0.66 6 1 C4.02 1 2.04 1 0 1 C0 0.67 0 0.34 0 0 Z " fill="#000000" transform="translate(156,290)"/>
<path d="M0 0 C0.33 0 0.66 0 1 0 C1 1.98 1 3.96 1 6 C0.67 6 0.34 6 0 6 C0 4.02 0 2.04 0 0 Z " fill="#000000" transform="translate(308,280)"/>
<path d="M0 0 C1.98 0 3.96 0 6 0 C6 0.33 6 0.66 6 1 C4.02 1 2.04 1 0 1 C0 0.67 0 0.34 0 0 Z " fill="#000000" transform="translate(310,278)"/>
<path d="M0 0 C1.32 0.33 2.64 0.66 4 1 C2.68 1.33 1.36 1.66 0 2 C0 1.34 0 0.68 0 0 Z " fill="#000000" transform="translate(316,197)"/>
<path d="M0 0 C1.98 0.495 1.98 0.495 4 1 C2.35 1.33 0.7 1.66 -1 2 C-0.67 1.34 -0.34 0.68 0 0 Z " fill="#656565" transform="translate(209,182)"/>
<path d="M0 0 C1.65 0 3.3 0 5 0 C5 0.33 5 0.66 5 1 C3.35 1 1.7 1 0 1 C0 0.67 0 0.34 0 0 Z " fill="#000000" transform="translate(160,317)"/>
<path d="M0 0 C1.65 0 3.3 0 5 0 C5 0.33 5 0.66 5 1 C3.35 1 1.7 1 0 1 C0 0.67 0 0.34 0 0 Z " fill="#000000" transform="translate(160,300)"/>
<path d="M0 0 C0.33 0.66 0.66 1.32 1 2 C1.66 2.33 2.32 2.66 3 3 C2.01 3 1.02 3 0 3 C0 2.01 0 1.02 0 0 Z " fill="#000000" transform="translate(310,297)"/>
<path d="M0 0 C0.99 0.33 1.98 0.66 3 1 C2.34 1 1.68 1 1 1 C0.67 1.66 0.34 2.32 0 3 C0 2.01 0 1.02 0 0 Z " fill="#000000" transform="translate(310,280)"/>
<path d="M0 0 C0.66 0 1.32 0 2 0 C2 0.99 2 1.98 2 3 C1.34 2.67 0.68 2.34 0 2 C0 1.34 0 0.68 0 0 Z " fill="#575757" transform="translate(248,247)"/>
<path d="M0 0 C0.33 0 0.66 0 1 0 C1 1.65 1 3.3 1 5 C0.67 5 0.34 5 0 5 C0 3.35 0 1.7 0 0 Z " fill="#000000" transform="translate(154,174)"/>
<path d="M0 0 C1.65 0 3.3 0 5 0 C5 0.33 5 0.66 5 1 C3.35 1 1.7 1 0 1 C0 0.67 0 0.34 0 0 Z " fill="#000000" transform="translate(156,170)"/>
<path d="M0 0 C0.33 0 0.66 0 1 0 C1 1.65 1 3.3 1 5 C0.67 5 0.34 5 0 5 C0 3.35 0 1.7 0 0 Z " fill="#000000" transform="translate(170,156)"/>
<path d="M0 0 C1.65 0 3.3 0 5 0 C5 0.33 5 0.66 5 1 C3.35 1 1.7 1 0 1 C0 0.67 0 0.34 0 0 Z " fill="#000000" transform="translate(174,154)"/>
<path d="M0 0 C4 1 4 1 4 1 Z " fill="#000000" transform="translate(310,303)"/>
<path d="M0 0 C1 4 1 4 1 4 Z " fill="#000000" transform="translate(306,296)"/>
<path d="M0 0 C4 1 4 1 4 1 Z " fill="#000000" transform="translate(156,288)"/>
<path d="M0 0 C1 4 1 4 1 4 Z " fill="#000000" transform="translate(306,280)"/>
<path d="M0 0 C4 1 4 1 4 1 Z " fill="#000000" transform="translate(310,276)"/>
<path d="M0 0 C0.99 0.495 0.99 0.495 2 1 C1.67 1.66 1.34 2.32 1 3 C0.67 2.01 0.34 1.02 0 0 Z " fill="#656565" transform="translate(188,258)"/>
<path d="M0 0 C0.99 0.495 0.99 0.495 2 1 C1.67 1.66 1.34 2.32 1 3 C0.67 2.01 0.34 1.02 0 0 Z " fill="#6A6A6A" transform="translate(206,242)"/>
<path d="M0 0 C4 1 4 1 4 1 Z " fill="#000000" transform="translate(140,198)"/>
<path d="M0 0 C0.66 0.33 1.32 0.66 2 1 C1.01 1 0.02 1 -1 1 C-0.67 0.67 -0.34 0.34 0 0 Z " fill="#8C8C8C" transform="translate(199,188)"/>
<path d="M0 0 C0.99 0.33 1.98 0.66 3 1 C2.01 1 1.02 1 0 1 C0 0.67 0 0.34 0 0 Z " fill="#838383" transform="translate(246,159)"/>
<path d="M0 0 C0.99 0 1.98 0 3 0 C2.67 0.66 2.34 1.32 2 2 C1.34 1.34 0.68 0.68 0 0 Z " fill="#898989" transform="translate(217,155)"/>
<path d="M0 0 C4 1 4 1 4 1 Z " fill="#000000" transform="translate(183,146)"/>
<path d="M0 0 C1 4 1 4 1 4 Z " fill="#000000" transform="translate(198,140)"/>
<path d="M0 0 C3 1 3 1 3 1 Z " fill="#000000" transform="translate(143,317)"/>
<path d="M0 0 C3 1 3 1 3 1 Z " fill="#000000" transform="translate(143,272)"/>
<path d="" fill="#535353" transform="translate(0,0)"/>
<path d="M0 0 C3 1 3 1 3 1 Z " fill="#000000" transform="translate(140,202)"/>
<path d="M0 0 C3 1 3 1 3 1 Z " fill="#000000" transform="translate(144,173)"/>
<path d="M0 0 C3 1 3 1 3 1 Z " fill="#000000" transform="translate(156,172)"/>
<path d="" fill="#000000" transform="translate(0,0)"/>
<path d="M0 0 C3 1 3 1 3 1 Z " fill="#000000" transform="translate(140,156)"/>
<path d="M0 0 C3 1 3 1 3 1 Z " fill="#000000" transform="translate(193,142)"/>
<path d="M0 0 C3 1 3 1 3 1 Z " fill="#000000" transform="translate(174,142)"/>
<path d="" fill="#000000" transform="translate(0,0)"/>
<path d="M0 0 C2 1 2 1 2 1 Z " fill="#000000" transform="translate(142,308)"/>
<path d="M0 0 C2 1 2 1 2 1 Z " fill="#000000" transform="translate(153,306)"/>
<path d="M0 0 C2 1 2 1 2 1 Z " fill="#000000" transform="translate(142,306)"/>
<path d="M0 0 C2 1 2 1 2 1 Z " fill="#000000" transform="translate(153,304)"/>
<path d="M0 0 C2 1 2 1 2 1 Z " fill="#000000" transform="translate(142,304)"/>
<path d="M0 0 C2 1 2 1 2 1 Z " fill="#000000" transform="translate(142,302)"/>
<path d="M0 0 C2 1 2 1 2 1 Z " fill="#000000" transform="translate(142,300)"/>
<path d="" fill="#000000" transform="translate(0,0)"/>
<path d="" fill="#000000" transform="translate(0,0)"/>
<path d="" fill="#000000" transform="translate(0,0)"/>
<path d="" fill="#000000" transform="translate(0,0)"/>
<path d="" fill="#000000" transform="translate(0,0)"/>
<path d="" fill="#000000" transform="translate(0,0)"/>
<path d="M0 0 C2 1 2 1 2 1 Z " fill="#000000" transform="translate(153,290)"/>
<path d="" fill="#000000" transform="translate(0,0)"/>
<path d="M0 0 C2 1 2 1 2 1 Z " fill="#000000" transform="translate(153,288)"/>
<path d="M0 0 C2 1 2 1 2 1 Z " fill="#000000" transform="translate(142,288)"/>
<path d="M0 0 C2 1 2 1 2 1 Z " fill="#000000" transform="translate(142,277)"/>
<path d="" fill="#000000" transform="translate(0,0)"/>
<path d="M0 0 C2 1 2 1 2 1 Z " fill="#000000" transform="translate(142,263)"/>
<path d="M0 0 C2 1 2 1 2 1 Z " fill="#000000" transform="translate(142,261)"/>
<path d="M0 0 C2 1 2 1 2 1 Z " fill="#000000" transform="translate(142,259)"/>
<path d="" fill="#717171" transform="translate(0,0)"/>
<path d="" fill="#6D6D6D" transform="translate(0,0)"/>
<path d="M0 0 C2 1 2 1 2 1 Z " fill="#000000" transform="translate(140,253)"/>
<path d="" fill="#626262" transform="translate(0,0)"/>
<path d="" fill="#555555" transform="translate(0,0)"/>
<path d="" fill="#616161" transform="translate(0,0)"/>
<path d="" fill="#909090" transform="translate(0,0)"/>
<path d="M0 0 C2 1 2 1 2 1 Z " fill="#000000" transform="translate(140,204)"/>
<path d="" fill="#7B7B7B" transform="translate(0,0)"/>
<path d="M0 0 C2 1 2 1 2 1 Z " fill="#000000" transform="translate(317,200)"/>
<path d="" fill="#909090" transform="translate(0,0)"/>
<path d="" fill="#828282" transform="translate(0,0)"/>
<path d="M0 0 C2 1 2 1 2 1 Z " fill="#8E8E8E" transform="translate(259,188)"/>
<path d="M0 0 C2 1 2 1 2 1 Z " fill="#626262" transform="translate(201,187)"/>
<path d="M0 0 C2 1 2 1 2 1 Z " fill="#7C7C7C" transform="translate(256,186)"/>
<path d="M0 0 C2 1 2 1 2 1 Z " fill="#555555" transform="translate(254,185)"/>
<path d="M0 0 C2 1 2 1 2 1 Z " fill="#737373" transform="translate(204,185)"/>
<path d="M0 0 C2 1 2 1 2 1 Z " fill="#444444" transform="translate(252,184)"/>
<path d="M0 0 C2 1 2 1 2 1 Z " fill="#525252" transform="translate(206,184)"/>
<path d="M0 0 C2 1 2 1 2 1 Z " fill="#656565" transform="translate(250,183)"/>
<path d="M0 0 C2 1 2 1 2 1 Z " fill="#919191" transform="translate(211,159)"/>
<path d="M0 0 C2 1 2 1 2 1 Z " fill="#6C6C6C" transform="translate(214,157)"/>
<path d="M0 0 C2 1 2 1 2 1 Z " fill="#717171" transform="translate(242,156)"/>
<path d="" fill="#000000" transform="translate(0,0)"/>
<path d="M0 0 C2 1 2 1 2 1 Z " fill="#000000" transform="translate(255,140)"/>
<path d="" fill="#000000" transform="translate(0,0)"/>
<path d="" fill="#000000" transform="translate(0,0)"/>
<path d="" fill="#000000" transform="translate(0,0)"/>
<path d="" fill="#000000" transform="translate(0,0)"/>
<path d="" fill="#000000" transform="translate(0,0)"/>
<path d="" fill="#000000" transform="translate(0,0)"/>
<path d="" fill="#000000" transform="translate(0,0)"/>
<path d="" fill="#000000" transform="translate(0,0)"/>
<path d="" fill="#000000" transform="translate(0,0)"/>
<path d="" fill="#000000" transform="translate(0,0)"/>
<path d="" fill="#000000" transform="translate(0,0)"/>
<path d="" fill="#000000" transform="translate(0,0)"/>
<path d="" fill="#000000" transform="translate(0,0)"/>
<path d="" fill="#000000" transform="translate(0,0)"/>
<path d="" fill="#000000" transform="translate(0,0)"/>
<path d="" fill="#000000" transform="translate(0,0)"/>
<path d="" fill="#000000" transform="translate(0,0)"/>
<path d="" fill="#000000" transform="translate(0,0)"/>
<path d="" fill="#000000" transform="translate(0,0)"/>
<path d="" fill="#000000" transform="translate(0,0)"/>
<path d="" fill="#000000" transform="translate(0,0)"/>
<path d="" fill="#000000" transform="translate(0,0)"/>
<path d="" fill="#000000" transform="translate(0,0)"/>
<path d="" fill="#000000" transform="translate(0,0)"/>
<path d="" fill="#000000" transform="translate(0,0)"/>
<path d="" fill="#000000" transform="translate(0,0)"/>
<path d="" fill="#000000" transform="translate(0,0)"/>
<path d="" fill="#000000" transform="translate(0,0)"/>
<path d="" fill="#000000" transform="translate(0,0)"/>
<path d="" fill="#000000" transform="translate(0,0)"/>
<path d="" fill="#000000" transform="translate(0,0)"/>
<path d="" fill="#000000" transform="translate(0,0)"/>
<path d="" fill="#000000" transform="translate(0,0)"/>
<path d="" fill="#000000" transform="translate(0,0)"/>
<path d="" fill="#000000" transform="translate(0,0)"/>
<path d="" fill="#000000" transform="translate(0,0)"/>
<path d="" fill="#000000" transform="translate(0,0)"/>
<path d="" fill="#000000" transform="translate(0,0)"/>
<path d="" fill="#000000" transform="translate(0,0)"/>
<path d="" fill="#000000" transform="translate(0,0)"/>
<path d="" fill="#000000" transform="translate(0,0)"/>
<path d="" fill="#000000" transform="translate(0,0)"/>
<path d="" fill="#000000" transform="translate(0,0)"/>
<path d="" fill="#000000" transform="translate(0,0)"/>
<path d="" fill="#000000" transform="translate(0,0)"/>
<path d="" fill="#000000" transform="translate(0,0)"/>
<path d="" fill="#000000" transform="translate(0,0)"/>
<path d="" fill="#000000" transform="translate(0,0)"/>
<path d="" fill="#000000" transform="translate(0,0)"/>
<path d="" fill="#000000" transform="translate(0,0)"/>
<path d="" fill="#000000" transform="translate(0,0)"/>
<path d="" fill="#000000" transform="translate(0,0)"/>
<path d="" fill="#000000" transform="translate(0,0)"/>
<path d="" fill="#000000" transform="translate(0,0)"/>
<path d="" fill="#000000" transform="translate(0,0)"/>
<path d="" fill="#000000" transform="translate(0,0)"/>
<path d="" fill="#000000" transform="translate(0,0)"/>
<path d="" fill="#000000" transform="translate(0,0)"/>
<path d="" fill="#000000" transform="translate(0,0)"/>
<path d="" fill="#000000" transform="translate(0,0)"/>
<path d="" fill="#000000" transform="translate(0,0)"/>
<path d="" fill="#000000" transform="translate(0,0)"/>
<path d="" fill="#000000" transform="translate(0,0)"/>
<path d="" fill="#000000" transform="translate(0,0)"/>
<path d="" fill="#000000" transform="translate(0,0)"/>
<path d="" fill="#000000" transform="translate(0,0)"/>
<path d="" fill="#000000" transform="translate(0,0)"/>
<path d="" fill="#000000" transform="translate(0,0)"/>
<path d="" fill="#000000" transform="translate(0,0)"/>
<path d="" fill="#000000" transform="translate(0,0)"/>
<path d="" fill="#000000" transform="translate(0,0)"/>
<path d="" fill="#000000" transform="translate(0,0)"/>
<path d="" fill="#000000" transform="translate(0,0)"/>
<path d="" fill="#000000" transform="translate(0,0)"/>
<path d="" fill="#000000" transform="translate(0,0)"/>
<path d="" fill="#000000" transform="translate(0,0)"/>
<path d="" fill="#000000" transform="translate(0,0)"/>
<path d="" fill="#000000" transform="translate(0,0)"/>
<path d="" fill="#000000" transform="translate(0,0)"/>
<path d="" fill="#000000" transform="translate(0,0)"/>
<path d="" fill="#000000" transform="translate(0,0)"/>
<path d="" fill="#000000" transform="translate(0,0)"/>
<path d="" fill="#000000" transform="translate(0,0)"/>
<path d="" fill="#000000" transform="translate(0,0)"/>
<path d="" fill="#000000" transform="translate(0,0)"/>
<path d="" fill="#000000" transform="translate(0,0)"/>
<path d="" fill="#000000" transform="translate(0,0)"/>
<path d="" fill="#000000" transform="translate(0,0)"/>
<path d="" fill="#000000" transform="translate(0,0)"/>
<path d="" fill="#000000" transform="translate(0,0)"/>
<path d="" fill="#000000" transform="translate(0,0)"/>
<path d="" fill="#000000" transform="translate(0,0)"/>
<path d="" fill="#000000" transform="translate(0,0)"/>
<path d="" fill="#000000" transform="translate(0,0)"/>
<path d="" fill="#000000" transform="translate(0,0)"/>
<path d="" fill="#000000" transform="translate(0,0)"/>
<path d="" fill="#000000" transform="translate(0,0)"/>
<path d="" fill="#000000" transform="translate(0,0)"/>
<path d="" fill="#000000" transform="translate(0,0)"/>
<path d="" fill="#000000" transform="translate(0,0)"/>
<path d="" fill="#000000" transform="translate(0,0)"/>
<path d="" fill="#000000" transform="translate(0,0)"/>
<path d="" fill="#000000" transform="translate(0,0)"/>
<path d="" fill="#000000" transform="translate(0,0)"/>
<path d="" fill="#000000" transform="translate(0,0)"/>
<path d="" fill="#000000" transform="translate(0,0)"/>
<path d="" fill="#000000" transform="translate(0,0)"/>
<path d="" fill="#000000" transform="translate(0,0)"/>
<path d="" fill="#000000" transform="translate(0,0)"/>
<path d="" fill="#000000" transform="translate(0,0)"/>
<path d="" fill="#000000" transform="translate(0,0)"/>
<path d="" fill="#000000" transform="translate(0,0)"/>
<path d="" fill="#000000" transform="translate(0,0)"/>
<path d="" fill="#000000" transform="translate(0,0)"/>
<path d="" fill="#000000" transform="translate(0,0)"/>
<path d="" fill="#000000" transform="translate(0,0)"/>
<path d="" fill="#000000" transform="translate(0,0)"/>
<path d="" fill="#000000" transform="translate(0,0)"/>
<path d="" fill="#000000" transform="translate(0,0)"/>
<path d="" fill="#000000" transform="translate(0,0)"/>
<path d="" fill="#000000" transform="translate(0,0)"/>
<path d="" fill="#000000" transform="translate(0,0)"/>
<path d="" fill="#000000" transform="translate(0,0)"/>
<path d="" fill="#000000" transform="translate(0,0)"/>
<path d="" fill="#000000" transform="translate(0,0)"/>
<path d="" fill="#000000" transform="translate(0,0)"/>
<path d="" fill="#000000" transform="translate(0,0)"/>
<path d="" fill="#000000" transform="translate(0,0)"/>
<path d="" fill="#000000" transform="translate(0,0)"/>
<path d="" fill="#000000" transform="translate(0,0)"/>
<path d="" fill="#000000" transform="translate(0,0)"/>
<path d="" fill="#000000" transform="translate(0,0)"/>
<path d="" fill="#000000" transform="translate(0,0)"/>
<path d="" fill="#000000" transform="translate(0,0)"/>
<path d="" fill="#000000" transform="translate(0,0)"/>
<path d="" fill="#000000" transform="translate(0,0)"/>
<path d="" fill="#000000" transform="translate(0,0)"/>
<path d="" fill="#000000" transform="translate(0,0)"/>
<path d="" fill="#000000" transform="translate(0,0)"/>
<path d="" fill="#000000" transform="translate(0,0)"/>
<path d="" fill="#000000" transform="translate(0,0)"/>
<path d="" fill="#000000" transform="translate(0,0)"/>
<path d="" fill="#000000" transform="translate(0,0)"/>
<path d="" fill="#000000" transform="translate(0,0)"/>
<path d="" fill="#000000" transform="translate(0,0)"/>
<path d="" fill="#000000" transform="translate(0,0)"/>
<path d="" fill="#000000" transform="translate(0,0)"/>
<path d="" fill="#000000" transform="translate(0,0)"/>
<path d="" fill="#000000" transform="translate(0,0)"/>
<path d="" fill="#000000" transform="translate(0,0)"/>
<path d="" fill="#000000" transform="translate(0,0)"/>
<path d="" fill="#000000" transform="translate(0,0)"/>
<path d="" fill="#000000" transform="translate(0,0)"/>
<path d="" fill="#000000" transform="translate(0,0)"/>
<path d="" fill="#000000" transform="translate(0,0)"/>
<path d="" fill="#000000" transform="translate(0,0)"/>
<path d="" fill="#000000" transform="translate(0,0)"/>
<path d="" fill="#000000" transform="translate(0,0)"/>
<path d="" fill="#000000" transform="translate(0,0)"/>
<path d="" fill="#000000" transform="translate(0,0)"/>
<path d="" fill="#000000" transform="translate(0,0)"/>
<path d="" fill="#000000" transform="translate(0,0)"/>
<path d="" fill="#000000" transform="translate(0,0)"/>
<path d="" fill="#000000" transform="translate(0,0)"/>
<path d="" fill="#000000" transform="translate(0,0)"/>
<path d="" fill="#000000" transform="translate(0,0)"/>
<path d="" fill="#000000" transform="translate(0,0)"/>
<path d="" fill="#000000" transform="translate(0,0)"/>
<path d="" fill="#000000" transform="translate(0,0)"/>
<path d="" fill="#000000" transform="translate(0,0)"/>
<path d="" fill="#000000" transform="translate(0,0)"/>
<path d="" fill="#000000" transform="translate(0,0)"/>
<path d="" fill="#000000" transform="translate(0,0)"/>
<path d="" fill="#000000" transform="translate(0,0)"/>
<path d="" fill="#000000" transform="translate(0,0)"/>
<path d="" fill="#000000" transform="translate(0,0)"/>
<path d="" fill="#000000" transform="translate(0,0)"/>
<path d="" fill="#000000" transform="translate(0,0)"/>
<path d="" fill="#000000" transform="translate(0,0)"/>
<path d="" fill="#000000" transform="translate(0,0)"/>
<path d="" fill="#000000" transform="translate(0,0)"/>
<path d="" fill="#000000" transform="translate(0,0)"/>
<path d="" fill="#000000" transform="translate(0,0)"/>
<path d="" fill="#000000" transform="translate(0,0)"/>
<path d="" fill="#000000" transform="translate(0,0)"/>
<path d="" fill="#000000" transform="translate(0,0)"/>
<path d="" fill="#000000" transform="translate(0,0)"/>
<path d="" fill="#000000" transform="translate(0,0)"/>
<path d="" fill="#000000" transform="translate(0,0)"/>
<path d="" fill="#000000" transform="translate(0,0)"/>
<path d="" fill="#000000" transform="translate(0,0)"/>
<path d="" fill="#000000" transform="translate(0,0)"/>
<path d="" fill="#000000" transform="translate(0,0)"/>
<path d="" fill="#000000" transform="translate(0,0)"/>
<path d="" fill="#000000" transform="translate(0,0)"/>
<path d="" fill="#000000" transform="translate(0,0)"/>
<path d="" fill="#000000" transform="translate(0,0)"/>
<path d="" fill="#000000" transform="translate(0,0)"/>
<path d="" fill="#000000" transform="translate(0,0)"/>
<path d="" fill="#000000" transform="translate(0,0)"/>
<path d="" fill="#000000" transform="translate(0,0)"/>
<path d="" fill="#000000" transform="translate(0,0)"/>
<path d="" fill="#000000" transform="translate(0,0)"/>
<path d="" fill="#000000" transform="translate(0,0)"/>
<path d="" fill="#000000" transform="translate(0,0)"/>
<path d="" fill="#000000" transform="translate(0,0)"/>
<path d="" fill="#000000" transform="translate(0,0)"/>
<path d="" fill="#000000" transform="translate(0,0)"/>
<path d="" fill="#000000" transform="translate(0,0)"/>
<path d="" fill="#000000" transform="translate(0,0)"/>
<path d="" fill="#000000" transform="translate(0,0)"/>
<path d="" fill="#000000" transform="translate(0,0)"/>
<path d="" fill="#000000" transform="translate(0,0)"/>
<path d="" fill="#000000" transform="translate(0,0)"/>
<path d="" fill="#000000" transform="translate(0,0)"/>
<path d="" fill="#000000" transform="translate(0,0)"/>
<path d="" fill="#000000" transform="translate(0,0)"/>
<path d="" fill="#000000" transform="translate(0,0)"/>
<path d="" fill="#000000" transform="translate(0,0)"/>
<path d="" fill="#000000" transform="translate(0,0)"/>
<path d="" fill="#000000" transform="translate(0,0)"/>
<path d="" fill="#000000" transform="translate(0,0)"/>
<path d="" fill="#000000" transform="translate(0,0)"/>
<path d="" fill="#000000" transform="translate(0,0)"/>
<path d="" fill="#000000" transform="translate(0,0)"/>
<path d="" fill="#000000" transform="translate(0,0)"/>
<path d="" fill="#000000" transform="translate(0,0)"/>
<path d="" fill="#000000" transform="translate(0,0)"/>
<path d="" fill="#000000" transform="translate(0,0)"/>
<path d="" fill="#000000" transform="translate(0,0)"/>
<path d="" fill="#000000" transform="translate(0,0)"/>
<path d="" fill="#000000" transform="translate(0,0)"/>
<path d="" fill="#000000" transform="translate(0,0)"/>
<path d="" fill="#000000" transform="translate(0,0)"/>
<path d="" fill="#000000" transform="translate(0,0)"/>
<path d="" fill="#000000" transform="translate(0,0)"/>
<path d="" fill="#000000" transform="translate(0,0)"/>
<path d="" fill="#000000" transform="translate(0,0)"/>
<path d="" fill="#000000" transform="translate(0,0)"/>
<path d="" fill="#000000" transform="translate(0,0)"/>
<path d="" fill="#000000" transform="translate(0,0)"/>
<path d="" fill="#000000" transform="translate(0,0)"/>
<path d="" fill="#000000" transform="translate(0,0)"/>
<path d="" fill="#000000" transform="translate(0,0)"/>
<path d="" fill="#000000" transform="translate(0,0)"/>
<path d="" fill="#000000" transform="translate(0,0)"/>
<path d="" fill="#000000" transform="translate(0,0)"/>
<path d="" fill="#000000" transform="translate(0,0)"/>
<path d="" fill="#000000" transform="translate(0,0)"/>
<path d="" fill="#000000" transform="translate(0,0)"/>
<path d="" fill="#000000" transform="translate(0,0)"/>
<path d="" fill="#000000" transform="translate(0,0)"/>
<path d="" fill="#000000" transform="translate(0,0)"/>
<path d="" fill="#000000" transform="translate(0,0)"/>
<path d="" fill="#000000" transform="translate(0,0)"/>
<path d="" fill="#000000" transform="translate(0,0)"/>
<path d="" fill="#000000" transform="translate(0,0)"/>
<path d="" fill="#000000" transform="translate(0,0)"/>
<path d="" fill="#000000" transform="translate(0,0)"/>
<path d="" fill="#000000" transform="translate(0,0)"/>
<path d="" fill="#696969" transform="translate(0,0)"/>
<path d="" fill="#848484" transform="translate(0,0)"/>
<path d="" fill="#000000" transform="translate(0,0)"/>
<path d="" fill="#000000" transform="translate(0,0)"/>
<path d="" fill="#000000" transform="translate(0,0)"/>
<path d="" fill="#000000" transform="translate(0,0)"/>
<path d="" fill="#919191" transform="translate(0,0)"/>
<path d="" fill="#B4B4B4" transform="translate(0,0)"/>
<path d="" fill="#000000" transform="translate(0,0)"/>
<path d="" fill="#000000" transform="translate(0,0)"/>
<path d="" fill="#000000" transform="translate(0,0)"/>
<path d="" fill="#000000" transform="translate(0,0)"/>
<path d="" fill="#8F8F8F" transform="translate(0,0)"/>
<path d="" fill="#7B7B7B" transform="translate(0,0)"/>
<path d="" fill="#000000" transform="translate(0,0)"/>
<path d="" fill="#000000" transform="translate(0,0)"/>
<path d="" fill="#000000" transform="translate(0,0)"/>
<path d="" fill="#000000" transform="translate(0,0)"/>
<path d="" fill="#000000" transform="translate(0,0)"/>
<path d="" fill="#000000" transform="translate(0,0)"/>
<path d="" fill="#000000" transform="translate(0,0)"/>
<path d="" fill="#000000" transform="translate(0,0)"/>
<path d="" fill="#000000" transform="translate(0,0)"/>
<path d="" fill="#000000" transform="translate(0,0)"/>
<path d="" fill="#000000" transform="translate(0,0)"/>
<path d="" fill="#000000" transform="translate(0,0)"/>
<path d="" fill="#878787" transform="translate(0,0)"/>
<path d="" fill="#000000" transform="translate(0,0)"/>
<path d="" fill="#000000" transform="translate(0,0)"/>
<path d="" fill="#4C4C4C" transform="translate(0,0)"/>
<path d="" fill="#000000" transform="translate(0,0)"/>
<path d="" fill="#999999" transform="translate(0,0)"/>
<path d="" fill="#8D8D8D" transform="translate(0,0)"/>
<path d="" fill="#828282" transform="translate(0,0)"/>
<path d="" fill="#131313" transform="translate(0,0)"/>
<path d="" fill="#454545" transform="translate(0,0)"/>
<path d="" fill="#000000" transform="translate(0,0)"/>
<path d="" fill="#000000" transform="translate(0,0)"/>
<path d="" fill="#A3A3A3" transform="translate(0,0)"/>
<path d="" fill="#606060" transform="translate(0,0)"/>
<path d="" fill="#000000" transform="translate(0,0)"/>
<path d="" fill="#8A8A8A" transform="translate(0,0)"/>
<path d="" fill="#9F9F9F" transform="translate(0,0)"/>
<path d="" fill="#9D9D9D" transform="translate(0,0)"/>
<path d="" fill="#868686" transform="translate(0,0)"/>
<path d="" fill="#8D8D8D" transform="translate(0,0)"/>
<path d="" fill="#000000" transform="translate(0,0)"/>
<path d="" fill="#7A7A7A" transform="translate(0,0)"/>
<path d="" fill="#000000" transform="translate(0,0)"/>
<path d="" fill="#000000" transform="translate(0,0)"/>
<path d="" fill="#000000" transform="translate(0,0)"/>
<path d="" fill="#000000" transform="translate(0,0)"/>
<path d="" fill="#000000" transform="translate(0,0)"/>
<path d="" fill="#828282" transform="translate(0,0)"/>
<path d="" fill="#000000" transform="translate(0,0)"/>
<path d="" fill="#000000" transform="translate(0,0)"/>
<path d="" fill="#000000" transform="translate(0,0)"/>
<path d="" fill="#A2A2A2" transform="translate(0,0)"/>
<path d="" fill="#000000" transform="translate(0,0)"/>
<path d="" fill="#000000" transform="translate(0,0)"/>
<path d="" fill="#000000" transform="translate(0,0)"/>
<path d="" fill="#484848" transform="translate(0,0)"/>
<path d="" fill="#000000" transform="translate(0,0)"/>
<path d="" fill="#000000" transform="translate(0,0)"/>
<path d="" fill="#000000" transform="translate(0,0)"/>
<path d="" fill="#000000" transform="translate(0,0)"/>
<path d="" fill="#000000" transform="translate(0,0)"/>
<path d="" fill="#000000" transform="translate(0,0)"/>
<path d="" fill="#000000" transform="translate(0,0)"/>
<path d="" fill="#000000" transform="translate(0,0)"/>
<path d="" fill="#000000" transform="translate(0,0)"/>
<path d="" fill="#000000" transform="translate(0,0)"/>
<path d="" fill="#000000" transform="translate(0,0)"/>
<path d="" fill="#000000" transform="translate(0,0)"/>
<path d="" fill="#000000" transform="translate(0,0)"/>
<path d="" fill="#000000" transform="translate(0,0)"/>
<path d="" fill="#000000" transform="translate(0,0)"/>
<path d="" fill="#000000" transform="translate(0,0)"/>
<path d="" fill="#000000" transform="translate(0,0)"/>
<path d="" fill="#000000" transform="translate(0,0)"/>
<path d="" fill="#000000" transform="translate(0,0)"/>
<path d="" fill="#000000" transform="translate(0,0)"/>
<path d="" fill="#000000" transform="translate(0,0)"/>
<path d="" fill="#000000" transform="translate(0,0)"/>
<path d="" fill="#000000" transform="translate(0,0)"/>
<path d="" fill="#000000" transform="translate(0,0)"/>
<path d="" fill="#000000" transform="translate(0,0)"/>
<path d="" fill="#000000" transform="translate(0,0)"/>
<path d="" fill="#000000" transform="translate(0,0)"/>
<path d="" fill="#000000" transform="translate(0,0)"/>
<path d="" fill="#000000" transform="translate(0,0)"/>
<path d="" fill="#000000" transform="translate(0,0)"/>
<path d="" fill="#000000" transform="translate(0,0)"/>
<path d="" fill="#000000" transform="translate(0,0)"/>
<path d="" fill="#000000" transform="translate(0,0)"/>
<path d="" fill="#000000" transform="translate(0,0)"/>
<path d="" fill="#767676" transform="translate(0,0)"/>
<path d="" fill="#989898" transform="translate(0,0)"/>
<path d="" fill="#B5B5B5" transform="translate(0,0)"/>
<path d="" fill="#A8A8A8" transform="translate(0,0)"/>
<path d="" fill="#464646" transform="translate(0,0)"/>
<path d="" fill="#000000" transform="translate(0,0)"/>
<path d="" fill="#B3B3B3" transform="translate(0,0)"/>
<path d="" fill="#000000" transform="translate(0,0)"/>
<path d="" fill="#000000" transform="translate(0,0)"/>
<path d="" fill="#000000" transform="translate(0,0)"/>
<path d="" fill="#000000" transform="translate(0,0)"/>
<path d="" fill="#000000" transform="translate(0,0)"/>
<path d="" fill="#000000" transform="translate(0,0)"/>
<path d="" fill="#000000" transform="translate(0,0)"/>
<path d="" fill="#000000" transform="translate(0,0)"/>
<path d="" fill="#000000" transform="translate(0,0)"/>
<path d="" fill="#000000" transform="translate(0,0)"/>
<path d="" fill="#000000" transform="translate(0,0)"/>
<path d="" fill="#000000" transform="translate(0,0)"/>
<path d="" fill="#000000" transform="translate(0,0)"/>
<path d="" fill="#000000" transform="translate(0,0)"/>
<path d="" fill="#000000" transform="translate(0,0)"/>
<path d="" fill="#000000" transform="translate(0,0)"/>
<path d="" fill="#000000" transform="translate(0,0)"/>
<path d="" fill="#000000" transform="translate(0,0)"/>
<path d="" fill="#000000" transform="translate(0,0)"/>
<path d="" fill="#000000" transform="translate(0,0)"/>
<path d="" fill="#000000" transform="translate(0,0)"/>
<path d="" fill="#000000" transform="translate(0,0)"/>
<path d="" fill="#000000" transform="translate(0,0)"/>
<path d="" fill="#000000" transform="translate(0,0)"/>
<path d="" fill="#000000" transform="translate(0,0)"/>
<path d="" fill="#000000" transform="translate(0,0)"/>
<path d="" fill="#000000" transform="translate(0,0)"/>
<path d="" fill="#000000" transform="translate(0,0)"/>
<path d="" fill="#000000" transform="translate(0,0)"/>
<path d="" fill="#000000" transform="translate(0,0)"/>
<path d="" fill="#000000" transform="translate(0,0)"/>
<path d="" fill="#000000" transform="translate(0,0)"/>
<path d="" fill="#000000" transform="translate(0,0)"/>
<path d="" fill="#000000" transform="translate(0,0)"/>
<path d="" fill="#000000" transform="translate(0,0)"/>
<path d="" fill="#000000" transform="translate(0,0)"/>
<path d="" fill="#000000" transform="translate(0,0)"/>
<path d="" fill="#000000" transform="translate(0,0)"/>
<path d="" fill="#000000" transform="translate(0,0)"/>
<path d="" fill="#000000" transform="translate(0,0)"/>
<path d="" fill="#000000" transform="translate(0,0)"/>
<path d="" fill="#000000" transform="translate(0,0)"/>
<path d="" fill="#000000" transform="translate(0,0)"/>
<path d="" fill="#000000" transform="translate(0,0)"/>
<path d="" fill="#000000" transform="translate(0,0)"/>
<path d="" fill="#000000" transform="translate(0,0)"/>
<path d="" fill="#000000" transform="translate(0,0)"/>
<path d="" fill="#000000" transform="translate(0,0)"/>
<path d="" fill="#000000" transform="translate(0,0)"/>
<path d="" fill="#000000" transform="translate(0,0)"/>
</svg>
